<?xml version="1.0" encoding="utf-8"?>
<!-- Generator: Adobe Illustrator 24.0.1, SVG Export Plug-In . SVG Version: 6.00 Build 0)  -->
<svg version="1.1" xmlns="http://www.w3.org/2000/svg" xmlns:xlink="http://www.w3.org/1999/xlink" x="0px" y="0px"
	 viewBox="0 0 750 500" style="enable-background:new 0 0 750 500;" xml:space="preserve">
<style type="text/css">
	.st0{fill-rule:evenodd;clip-rule:evenodd;fill:#F8EEE4;}
	.st1{fill-rule:evenodd;clip-rule:evenodd;fill:#FFFFFF;}
	.st2{fill:#CCCCCC;}
	.st3{clip-path:url(#SVGID_2_);}
	.st4{fill:#999999;}
	.st5{fill:#B9A2BA;}
	.st6{fill:#7D677F;}
	.st7{fill:#0071BC;}
	.st8{fill:#29ABE2;}
	.st9{fill:#B0D0FF;}
	.st10{fill:#FFFFFF;}
	.st11{fill:#4F64B1;}
	.st12{fill:#CAE0FF;}
	.st13{fill:#162659;}
	.st14{fill:#A29B00;}
	.st15{fill:#00F7E5;}
	.st16{fill:#859CE8;}
	.st17{fill:#FFFFFF;stroke:#231F20;stroke-width:0.236;stroke-miterlimit:10;}
	.st18{fill:#FB9844;}
	.st19{fill:#2F3655;}
	.st20{fill:#662D91;}
	.st21{fill:#EFF4F4;}
	.st22{fill:#FC6B76;}
	.st23{fill:#BA9BC9;}
	.st24{fill:#FBB03B;}
	.st25{fill:#EC5D10;}
	.st26{fill:#FED4D5;}
	.st27{fill:#2C5099;}
	.st28{fill:#4E6FD8;}
	.st29{opacity:0.25;}
	.st30{fill:#231F20;}
	.st31{fill:#FFFFFF;stroke:#231F20;stroke-width:0.2609;stroke-miterlimit:10;}
	.st32{opacity:0.46;fill:#231F20;}
	.st33{fill:#F15A24;}
	.st34{fill:#FFFFFF;stroke:#231F20;stroke-width:0.2679;stroke-miterlimit:10;}
	.st35{fill:#E8863D;}
	.st36{opacity:0.41;fill:#231F20;}
	.st37{fill:#212638;}
	.st38{opacity:0.58;fill:#231F20;}
	.st39{fill:#D67432;}
	.st40{fill:#F2B3BB;}
	.st41{fill:#E6E6E6;}
	.st42{fill:#B3B3B3;}
	.st43{fill:#1A2138;}
	.st44{fill:#40C0C6;}
	.st45{fill:#108C92;}
	.st46{fill:#4D4D4D;}
	.st47{fill:#EDB49F;}
	.st48{opacity:0.34;}
	.st49{fill:#F7931E;}
	.st50{opacity:0.32;}
	.st51{opacity:0.76;}
</style>
<g id="BACKGROUND">
	<g>
		<g>
			<g>
				<path class="st0" d="M141.49,193.4c5.6-13.52-25.04-21.87-59.48,17.99C51.84,246.32,33.49,324.67,110,396.51
					c80.47,75.55,436.15,115.34,533.56-56.3c85-149.78-47.3-151.6-95.67-153.19c-120.59-3.97-93.31-262.64-274.44-35.26
					C191.39,254.78,120.62,243.77,141.49,193.4z"/>
			</g>
			<path class="st0" d="M591.71,356.22c0,0,32.54-31.43,43.2-67.74c10.3-35.06,14.15,25.18-29.03,75.17
				C562.69,413.64,576.12,374.63,591.71,356.22z"/>
			<g>
				<path class="st0" d="M637.09,181.4c0,0,34.48,3.62,48,24.01c19.14,28.89,6.83,77.76-5.61,100.89
					c-12.44,23.13,13.11,16.13,27.09-37.53c13.98-53.66-5.2-90.83-50.73-100.26C610.31,159.07,596.08,179.92,637.09,181.4z"/>
			</g>
			<path class="st0" d="M665.27,341.68c0,0-5.57,12.05-11.83,22.17c-6.26,10.11-0.7,14.22,10.26,1.16
				C674.66,351.94,670.29,331.58,665.27,341.68z"/>
			<path class="st0" d="M43.89,244.56c0,0,17.74-50.46,59.82-74.15c42.09-23.7-16.75-15.45-43.13,18.6
				C30.07,228.4,33.46,272.87,43.89,244.56z"/>
			<path class="st0" d="M128.93,153.89c0,0,4.3-9.23,18.61-5.67C159.61,151.23,123.98,162.79,128.93,153.89z"/>
		</g>
	</g>
	<path class="st1" d="M643.06,268.12c0,0,3.19-10,0.33-16.11c-2.86-6.1-5.01,4.29-4.72,8.87S639.95,276.13,643.06,268.12z"/>
</g>
<g id="OBJECT">
	<g>
		<g>
			
				<rect x="555.25" y="202.08" transform="matrix(0.8862 0.4633 -0.4633 0.8862 192.8261 -231.3917)" class="st2" width="24.36" height="149.48"/>
			<g>
				<defs>
					
						<rect id="SVGID_1_" x="555.25" y="202.08" transform="matrix(0.8862 0.4633 -0.4633 0.8862 192.8261 -231.3917)" width="24.36" height="149.48"/>
				</defs>
				<clipPath id="SVGID_2_">
					<use xlink:href="#SVGID_1_"  style="overflow:visible;"/>
				</clipPath>
				<g class="st3">
					
						<rect x="604.21" y="221.76" transform="matrix(0.8862 0.4633 -0.4633 0.8862 172.5345 -256.8008)" class="st4" width="9.6" height="2.11"/>
					
						<rect x="595.31" y="238.78" transform="matrix(0.8862 0.4633 -0.4633 0.8862 179.4087 -250.7403)" class="st4" width="9.6" height="2.11"/>
					
						<rect x="603.97" y="229.3" transform="matrix(0.8862 0.4633 -0.4633 0.8862 176.0027 -255.8332)" class="st4" width="9.6" height="2.11"/>
					
						<rect x="600.83" y="235.32" transform="matrix(0.8862 0.4633 -0.4633 0.8862 178.4338 -253.6898)" class="st4" width="9.6" height="2.11"/>
					
						<rect x="586.18" y="256.25" transform="matrix(0.8862 0.4633 -0.4633 0.8862 186.4646 -244.5236)" class="st4" width="9.6" height="2.11"/>
					
						<rect x="594.84" y="246.77" transform="matrix(0.8862 0.4633 -0.4633 0.8862 183.0563 -249.6145)" class="st4" width="9.6" height="2.11"/>
					
						<rect x="591.69" y="252.79" transform="matrix(0.8862 0.4633 -0.4633 0.8862 185.4874 -247.4711)" class="st4" width="9.6" height="2.11"/>
					
						<rect x="577.05" y="273.72" transform="matrix(0.8862 0.4633 -0.4633 0.8862 193.5182 -238.3049)" class="st4" width="9.6" height="2.11"/>
					
						<rect x="585.71" y="264.24" transform="matrix(0.8862 0.4633 -0.4633 0.8862 190.1074 -243.3938)" class="st4" width="9.6" height="2.11"/>
					
						<rect x="582.56" y="270.26" transform="matrix(0.8862 0.4633 -0.4633 0.8862 192.541 -241.2524)" class="st4" width="9.6" height="2.11"/>
					
						<rect x="567.92" y="291.19" transform="matrix(0.8862 0.4633 -0.4633 0.8862 200.5718 -232.0862)" class="st4" width="9.6" height="2.11"/>
					
						<rect x="576.58" y="281.7" transform="matrix(0.8862 0.4633 -0.4633 0.8862 197.1635 -237.177)" class="st4" width="9.6" height="2.11"/>
					
						<rect x="573.43" y="287.72" transform="matrix(0.8862 0.4633 -0.4633 0.8862 199.5921 -235.0318)" class="st4" width="9.6" height="2.11"/>
					
						<rect x="558.79" y="308.65" transform="matrix(0.8862 0.4633 -0.4633 0.8862 207.6254 -225.8675)" class="st4" width="9.6" height="2.11"/>
					
						<rect x="567.44" y="299.17" transform="matrix(0.8862 0.4633 -0.4633 0.8862 204.2171 -230.9583)" class="st4" width="9.6" height="2.11"/>
					
						<rect x="564.3" y="305.19" transform="matrix(0.8862 0.4633 -0.4633 0.8862 206.6482 -228.8149)" class="st4" width="9.6" height="2.11"/>
					
						<rect x="549.65" y="326.12" transform="matrix(0.8862 0.4633 -0.4633 0.8862 214.679 -219.6487)" class="st4" width="9.6" height="2.11"/>
					
						<rect x="558.31" y="316.64" transform="matrix(0.8862 0.4633 -0.4633 0.8862 211.2707 -224.7396)" class="st4" width="9.6" height="2.11"/>
					
						<rect x="555.17" y="322.66" transform="matrix(0.8862 0.4633 -0.4633 0.8862 213.7018 -222.5962)" class="st4" width="9.6" height="2.11"/>
					
						<rect x="540.52" y="343.59" transform="matrix(0.8862 0.4633 -0.4633 0.8862 221.7326 -213.43)" class="st4" width="9.6" height="2.11"/>
					
						<rect x="549.18" y="334.11" transform="matrix(0.8862 0.4633 -0.4633 0.8862 218.3243 -218.5209)" class="st4" width="9.6" height="2.11"/>
					
						<rect x="546.03" y="340.13" transform="matrix(0.8862 0.4633 -0.4633 0.8862 220.7554 -216.3775)" class="st4" width="9.6" height="2.11"/>
				</g>
			</g>
		</g>
		<g>
			<polygon class="st5" points="516.48,316.64 516.63,336.94 528.93,320.79 			"/>
			<path class="st6" d="M554.49,235.96l-7.79-2.6c-1.22-0.41-1.88-1.74-1.48-2.96l5.26-15.79c0.41-1.22,1.74-1.88,2.96-1.48
				l7.79,2.6c1.22,0.41,1.88,1.74,1.48,2.96l-5.26,15.79C557.04,235.71,555.71,236.37,554.49,235.96z"/>
			
				<rect x="530.23" y="231.94" transform="matrix(0.9487 0.3162 -0.3162 0.9487 114.9486 -155.5359)" class="st6" width="13.12" height="89.06"/>
			<path class="st5" d="M551.59,269.07c-4.04-6.76,15.81-29.45,14.31-34.39c-0.82-2.71-3.31-3.81-5.38-4.26l1.96-5.87l-15.33-5.11
				l-6.74,20.22l15.33,5.11l0.11,0.11l-9.7,30.55C546.15,275.44,555.63,275.83,551.59,269.07z"/>
		</g>
		<polygon class="st7" points="538.5,373.53 499.28,357.21 525.07,278.98 575.83,300.11 		"/>
		
			<rect x="518.22" y="289.22" transform="matrix(0.9232 0.3842 -0.3842 0.9232 155.4602 -188.1183)" class="st8" width="60.6" height="11.56"/>
	</g>
	<path id="XMLID_562_" class="st9" d="M509.18,378.94c4.43-0.83-1.68-6.38-7.78-11.01c1,3.75,2.15,7.42,3.47,10.99
		C506.6,379.11,508.1,379.15,509.18,378.94z"/>
	<g id="XMLID_534_">
		<path id="XMLID_561_" class="st10" d="M525.6,362.51c0,0-2.31,4.89,0.53,7.5l-38.21,0.12l0.08-7.02L525.6,362.51z"/>
		<path id="XMLID_560_" class="st10" d="M526.04,337.16c0,0-2.31,4.89,0.53,7.5l-38.21,0.12l0.08-7.02L526.04,337.16z"/>
		<polygon id="XMLID_559_" class="st11" points="527.09,334.43 527.11,337.55 488.44,337.77 488.48,344.4 527.15,344.17 
			527.17,347.29 484.48,347.54 484.48,347.42 484.46,344.42 484.42,337.79 484.4,334.67 		"/>
		<g id="XMLID_556_">
			<line id="XMLID_558_" class="st12" x1="524.05" y1="338.93" x2="489.76" y2="339.13"/>
			
				<rect id="XMLID_557_" x="489.76" y="338.74" transform="matrix(1 -5.740209e-03 5.740209e-03 1 -1.9377 2.9153)" class="st13" width="34.28" height="0.58"/>
		</g>
		<g id="XMLID_553_">
			<line id="XMLID_555_" class="st12" x1="524.06" y1="340.76" x2="489.77" y2="340.95"/>
			
				<rect id="XMLID_554_" x="489.77" y="340.56" transform="matrix(1 -5.740209e-03 5.740209e-03 1 -1.9482 2.9154)" class="st13" width="34.28" height="0.58"/>
		</g>
		<g id="XMLID_547_">
			<line id="XMLID_552_" class="st12" x1="524.07" y1="342.51" x2="489.78" y2="342.71"/>
			
				<rect id="XMLID_551_" x="489.78" y="342.32" transform="matrix(1 -5.740192e-03 5.740192e-03 1 -1.9583 2.9155)" class="st13" width="34.28" height="0.58"/>
			
				<rect id="XMLID_550_" x="489.4" y="364.32" transform="matrix(1 -5.740192e-03 5.740192e-03 1 -2.0846 2.9137)" class="st14" width="34.28" height="0.58"/>
			
				<rect id="XMLID_549_" x="489.41" y="366.15" transform="matrix(1 -5.740192e-03 5.740192e-03 1 -2.0951 2.9137)" class="st14" width="34.28" height="0.58"/>
			
				<rect id="XMLID_548_" x="489.42" y="367.9" transform="matrix(1 -5.740192e-03 5.740192e-03 1 -2.1052 2.9138)" class="st14" width="34.28" height="0.58"/>
		</g>
		<path id="XMLID_546_" class="st10" d="M521.24,350.06c0,0-2.31,4.89,0.53,7.5l-38.21,0.12l0.08-7.02L521.24,350.06z"/>
		<polygon id="XMLID_545_" class="st15" points="522.29,347.32 522.31,350.44 483.64,350.66 483.68,357.29 522.35,357.07 
			522.37,360.19 479.68,360.43 479.68,360.31 479.66,357.31 479.62,350.69 479.6,347.57 		"/>
		<g id="XMLID_543_">
			
				<rect id="XMLID_544_" x="484.96" y="351.63" transform="matrix(1 -5.740192e-03 5.740192e-03 1 -2.0118 2.888)" class="st13" width="34.28" height="0.58"/>
		</g>
		<g id="XMLID_541_">
			
				<rect id="XMLID_542_" x="484.97" y="353.46" transform="matrix(1 -5.740192e-03 5.740192e-03 1 -2.0223 2.8881)" class="st13" width="34.28" height="0.58"/>
		</g>
		<g id="XMLID_539_">
			
				<rect id="XMLID_540_" x="484.98" y="355.21" transform="matrix(1 -5.740209e-03 5.740209e-03 1 -2.0324 2.8882)" class="st13" width="34.28" height="0.58"/>
		</g>
		<polygon id="XMLID_538_" class="st16" points="526.65,359.77 526.67,362.89 488,363.11 488.04,369.74 526.71,369.52 
			526.73,372.64 484.04,372.88 484.04,372.76 484.02,369.76 483.98,363.14 483.96,360.02 		"/>
		<path id="XMLID_537_" class="st17" d="M523.61,364.27"/>
		<path id="XMLID_536_" class="st17" d="M523.62,366.1"/>
		<path id="XMLID_535_" class="st17" d="M523.63,367.86"/>
	</g>
	<g id="XMLID_506_">
		<path id="XMLID_533_" class="st10" d="M531.87,326.9c0,0-2.31,4.89,0.53,7.5l-38.21,0.12l0.08-7.02L531.87,326.9z"/>
		<path id="XMLID_532_" class="st10" d="M532.31,301.56c0,0-2.31,4.89,0.53,7.5l-38.21,0.12l0.08-7.02L532.31,301.56z"/>
		<polygon id="XMLID_531_" class="st11" points="533.36,298.82 533.38,301.94 494.71,302.16 494.75,308.79 533.42,308.57 
			533.44,311.69 490.75,311.93 490.75,311.81 490.73,308.82 490.69,302.19 490.67,299.07 		"/>
		<g id="XMLID_528_">
			<line id="XMLID_530_" class="st12" x1="530.32" y1="303.32" x2="496.03" y2="303.52"/>
			
				<rect id="XMLID_529_" x="496.03" y="303.13" transform="matrix(1 -5.740209e-03 5.740209e-03 1 -1.7333 2.9507)" class="st13" width="34.28" height="0.58"/>
		</g>
		<g id="XMLID_525_">
			<line id="XMLID_527_" class="st12" x1="530.33" y1="305.15" x2="496.04" y2="305.35"/>
			
				<rect id="XMLID_526_" x="496.04" y="304.96" transform="matrix(1 -5.740192e-03 5.740192e-03 1 -1.7437 2.9508)" class="st13" width="34.28" height="0.58"/>
		</g>
		<g id="XMLID_519_">
			<line id="XMLID_524_" class="st12" x1="530.34" y1="306.91" x2="496.05" y2="307.1"/>
			
				<rect id="XMLID_523_" x="496.05" y="306.71" transform="matrix(1 -5.740192e-03 5.740192e-03 1 -1.7538 2.9509)" class="st13" width="34.28" height="0.58"/>
			
				<rect id="XMLID_522_" x="495.67" y="328.72" transform="matrix(1 -5.740192e-03 5.740192e-03 1 -1.8801 2.9491)" class="st14" width="34.28" height="0.58"/>
			
				<rect id="XMLID_521_" x="495.68" y="330.55" transform="matrix(1 -5.740192e-03 5.740192e-03 1 -1.8906 2.9491)" class="st14" width="34.28" height="0.58"/>
			
				<rect id="XMLID_520_" x="495.69" y="332.3" transform="matrix(1 -5.740192e-03 5.740192e-03 1 -1.9007 2.9492)" class="st14" width="34.28" height="0.58"/>
		</g>
		<path id="XMLID_518_" class="st10" d="M527.51,314.45c0,0-2.31,4.89,0.53,7.5l-38.21,0.12l0.08-7.02L527.51,314.45z"/>
		<polygon id="XMLID_517_" class="st18" points="528.56,311.72 528.58,314.84 489.91,315.06 489.95,321.69 528.62,321.46 
			528.64,324.58 485.95,324.83 485.95,324.71 485.93,321.71 485.89,315.08 485.87,311.96 		"/>
		<g id="XMLID_515_">
			
				<rect id="XMLID_516_" x="491.23" y="316.02" transform="matrix(1 -5.740192e-03 5.740192e-03 1 -1.8073 2.9234)" class="st13" width="34.28" height="0.58"/>
		</g>
		<g id="XMLID_513_">
			
				<rect id="XMLID_514_" x="491.24" y="317.85" transform="matrix(1 -5.740192e-03 5.740192e-03 1 -1.8178 2.9235)" class="st13" width="34.28" height="0.58"/>
		</g>
		<g id="XMLID_511_">
			
				<rect id="XMLID_512_" x="491.25" y="319.61" transform="matrix(1 -5.740192e-03 5.740192e-03 1 -1.8279 2.9236)" class="st13" width="34.28" height="0.58"/>
		</g>
		<polygon id="XMLID_510_" class="st19" points="532.92,324.17 532.94,327.29 494.27,327.51 494.31,334.14 532.98,333.92 
			533,337.03 490.31,337.28 490.31,337.16 490.29,334.16 490.25,327.53 490.23,324.41 		"/>
		<path id="XMLID_509_" class="st17" d="M529.88,328.67"/>
		<path id="XMLID_508_" class="st17" d="M529.89,330.5"/>
		<path id="XMLID_507_" class="st17" d="M529.9,332.25"/>
	</g>
	<g>
		<g>
			<path class="st20" d="M205.62,373.73l-89.23-11.59c-6.55-0.85-3.94-20.92,2.61-20.07l89.23,11.59L205.62,373.73z"/>
			<path class="st21" d="M205.89,371.68l-85.15-11.06c-6.25-0.81-4.26-16.16,1.99-15.35l85.15,11.06L205.89,371.68z"/>
			<path class="st2" d="M206.42,358.67l-84.08-10.92c-0.4-0.05-0.69-0.42-0.64-0.83l0,0c0.05-0.4,0.42-0.69,0.82-0.64l84.08,10.92
				c0.4,0.05,0.69,0.42,0.64,0.83l0,0C207.19,358.43,206.82,358.72,206.42,358.67z"/>
			<path class="st2" d="M206.04,361.59l-84.08-10.92c-0.4-0.05-0.69-0.42-0.64-0.83l0,0c0.05-0.4,0.42-0.69,0.82-0.64l84.08,10.92
				c0.4,0.05,0.69,0.42,0.64,0.83l0,0C206.81,361.36,206.44,361.64,206.04,361.59z"/>
			<path class="st2" d="M205.66,364.51l-84.08-10.92c-0.4-0.05-0.69-0.42-0.64-0.83l0,0c0.05-0.4,0.42-0.69,0.83-0.64l84.08,10.92
				c0.4,0.05,0.69,0.42,0.64,0.83l0,0C206.43,364.28,206.06,364.57,205.66,364.51z"/>
			<path class="st2" d="M205.28,367.44l-84.08-10.92c-0.4-0.05-0.69-0.42-0.64-0.83l0,0c0.05-0.4,0.42-0.69,0.83-0.64l84.08,10.92
				c0.4,0.05,0.69,0.42,0.64,0.83l0,0C206.05,367.2,205.68,367.49,205.28,367.44z"/>
			<path class="st2" d="M204.9,370.36l-84.08-10.92c-0.4-0.05-0.69-0.42-0.64-0.83l0,0c0.05-0.4,0.42-0.69,0.82-0.64l84.08,10.92
				c0.4,0.05,0.69,0.42,0.64,0.82l0,0C205.68,370.13,205.3,370.41,204.9,370.36z"/>
		</g>
		<g>
			<path class="st22" d="M146.88,327.35l72.85,9.02c5.35,0.66,3.32,17.05-2.03,16.38l-72.85-9.02L146.88,327.35z"/>
			<path class="st21" d="M146.68,329.02l69.53,8.6c5.1,0.63,3.55,13.16-1.55,12.53l-69.53-8.6L146.68,329.02z"/>
			<path class="st2" d="M146.31,339.64l68.65,8.5c0.33,0.04,0.56,0.34,0.52,0.67l0,0c-0.04,0.33-0.34,0.56-0.67,0.52l-68.65-8.5
				c-0.33-0.04-0.56-0.34-0.52-0.67l0,0C145.68,339.84,145.98,339.6,146.31,339.64z"/>
			<path class="st2" d="M146.6,337.26l68.65,8.5c0.33,0.04,0.56,0.34,0.52,0.67l0,0c-0.04,0.33-0.34,0.56-0.67,0.52l-68.65-8.5
				c-0.33-0.04-0.56-0.34-0.52-0.67l0,0C145.97,337.45,146.27,337.22,146.6,337.26z"/>
			<path class="st2" d="M146.9,334.87l68.65,8.5c0.33,0.04,0.56,0.34,0.52,0.67l0,0c-0.04,0.33-0.34,0.56-0.67,0.52l-68.65-8.5
				c-0.33-0.04-0.56-0.34-0.52-0.67l0,0C146.27,335.06,146.57,334.83,146.9,334.87z"/>
			<path class="st2" d="M147.19,332.48l68.65,8.5c0.33,0.04,0.56,0.34,0.52,0.67l0,0c-0.04,0.33-0.34,0.56-0.67,0.52l-68.65-8.5
				c-0.33-0.04-0.56-0.34-0.52-0.67l0,0C146.56,332.68,146.86,332.44,147.19,332.48z"/>
			<path class="st2" d="M147.49,330.09l68.65,8.5c0.33,0.04,0.56,0.34,0.52,0.67l0,0c-0.04,0.33-0.34,0.56-0.67,0.52l-68.65-8.5
				c-0.33-0.04-0.56-0.34-0.52-0.67l0,0C146.86,330.29,147.16,330.05,147.49,330.09z"/>
		</g>
		<g>
			<path class="st22" d="M137.68,380.97l73.08-6.97c5.36-0.51,6.93,15.92,1.57,16.43l-73.08,6.97L137.68,380.97z"/>
			<path class="st21" d="M137.84,382.65l69.74-6.65c5.12-0.49,6.32,12.08,1.2,12.57l-69.74,6.65L137.84,382.65z"/>
			<path class="st2" d="M139.78,393.1l68.87-6.57c0.33-0.03,0.62,0.21,0.66,0.54l0,0c0.03,0.33-0.21,0.62-0.54,0.66l-68.87,6.57
				c-0.33,0.03-0.62-0.21-0.66-0.54l0,0C139.2,393.42,139.45,393.13,139.78,393.1z"/>
			<path class="st2" d="M139.55,390.7l68.87-6.57c0.33-0.03,0.62,0.21,0.66,0.54l0,0c0.03,0.33-0.21,0.62-0.54,0.66l-68.87,6.57
				c-0.33,0.03-0.62-0.21-0.66-0.54l0,0C138.98,391.03,139.22,390.73,139.55,390.7z"/>
			<path class="st2" d="M139.32,388.31l68.87-6.57c0.33-0.03,0.62,0.21,0.66,0.54l0,0c0.03,0.33-0.21,0.62-0.54,0.66l-68.87,6.57
				c-0.33,0.03-0.62-0.21-0.66-0.54l0,0C138.75,388.63,138.99,388.34,139.32,388.31z"/>
			<path class="st2" d="M139.09,385.91l68.87-6.57c0.33-0.03,0.62,0.21,0.66,0.54l0,0c0.03,0.33-0.21,0.62-0.54,0.66l-68.87,6.57
				c-0.33,0.03-0.62-0.21-0.66-0.54l0,0C138.52,386.24,138.76,385.95,139.09,385.91z"/>
			<path class="st2" d="M138.86,383.52l68.87-6.57c0.33-0.03,0.62,0.21,0.66,0.54l0,0c0.03,0.33-0.21,0.62-0.54,0.66l-68.87,6.57
				c-0.33,0.03-0.62-0.21-0.66-0.54l0,0C138.29,383.85,138.53,383.55,138.86,383.52z"/>
		</g>
		<g>
			<path class="st23" d="M172.61,356.71l1.21,0.11c0,0,8.83-13.85,23.56-21.92c0,0,1.85,0.66,3.73-0.54l-1.88-1.92l-2.35-0.21
				c0,0-10.01,7.95-13.61,11.96c-3.6,4.01-9.28,9.75-9.28,9.75L172.61,356.71z"/>
			<path class="st23" d="M224.02,306.31l0.09,1.21c0,0-14.03,8.55-22.39,23.12c0,0,0.62,1.86-0.61,3.72l-1.88-1.92l-0.17-2.36
				c0,0,8.14-9.85,12.23-13.37c4.08-3.52,9.93-9.09,9.93-9.09L224.02,306.31z"/>
			<path class="st10" d="M168.14,354.27l1.36,1.39l0.53-0.52l1.23,1.26l0.53-0.52l0.81,0.83c0,0,6.83-11.12,25.19-23.4l-2.15-4.51
				l-9.79,5.18L168.14,354.27z"/>
			<path class="st10" d="M221.34,302.11l1.36,1.39l-0.53,0.52l1.23,1.26l-0.53,0.52l0.81,0.83c0,0-11.25,6.61-23.89,24.73
				l-4.47-2.24l5.38-9.69L221.34,302.11z"/>
			<path class="st10" d="M200.67,333.33l-0.58,0.57c-0.79,0.78-2.07,0.76-2.85-0.03l-4.71-4.81c-0.78-0.79-0.76-2.07,0.03-2.85
				l0.58-0.57c0.79-0.78,2.07-0.76,2.85,0.03l4.71,4.81C201.47,331.27,201.46,332.56,200.67,333.33z"/>
			<path class="st10" d="M222.71,302.27c-10.83,8.1-19.85,16.95-27.06,26.53l-39.81-40.61c6.34-11.58,15.36-20.43,27.06-26.53
				L222.71,302.27z"/>
			<path class="st21" d="M168.59,355.33c7.81-10.35,16.75-19.29,27.06-26.53l-39.81-40.61c-11.71,6.11-20.73,14.95-27.06,26.53
				L168.59,355.33z"/>
			<g>
				<path class="st2" d="M156.29,293.82c-0.03,0.03-0.07,0.06-0.11,0.08c-15.79,9.38-22.57,22.05-22.64,22.18
					c-0.15,0.28-0.5,0.39-0.78,0.24c-0.28-0.15-0.39-0.5-0.24-0.78c0.07-0.13,6.98-13.08,23.07-22.64c0.28-0.16,0.63-0.07,0.79,0.2
					C156.52,293.34,156.48,293.63,156.29,293.82z"/>
			</g>
			<g>
				<path class="st2" d="M160.06,297.67c-0.03,0.03-0.07,0.06-0.11,0.08c-15.79,9.38-22.57,22.05-22.64,22.18
					c-0.15,0.28-0.5,0.39-0.78,0.24c-0.28-0.15-0.39-0.5-0.24-0.78c0.07-0.13,6.98-13.08,23.07-22.64c0.28-0.16,0.63-0.07,0.79,0.2
					C160.3,297.19,160.25,297.48,160.06,297.67z"/>
			</g>
			<g>
				<path class="st2" d="M163.84,301.52c-0.03,0.03-0.07,0.06-0.11,0.08c-15.79,9.38-22.57,22.05-22.64,22.18
					c-0.15,0.28-0.5,0.39-0.78,0.24c-0.28-0.15-0.39-0.5-0.24-0.78c0.07-0.13,6.98-13.08,23.07-22.64c0.28-0.16,0.63-0.07,0.79,0.2
					C164.07,301.04,164.03,301.33,163.84,301.52z"/>
			</g>
			<g>
				<path class="st2" d="M167.61,305.37c-0.03,0.03-0.07,0.06-0.11,0.08c-15.79,9.38-22.57,22.05-22.64,22.18
					c-0.15,0.28-0.5,0.39-0.78,0.24c-0.28-0.15-0.39-0.5-0.24-0.78c0.07-0.13,6.98-13.08,23.07-22.64c0.28-0.16,0.63-0.07,0.79,0.2
					C167.84,304.89,167.8,305.18,167.61,305.37z"/>
			</g>
			<g>
				<path class="st2" d="M171.39,309.22c-0.03,0.03-0.07,0.06-0.11,0.08c-15.79,9.38-22.57,22.05-22.64,22.18
					c-0.15,0.28-0.5,0.39-0.78,0.24c-0.28-0.15-0.39-0.5-0.24-0.78c0.07-0.13,6.98-13.08,23.07-22.64c0.28-0.16,0.63-0.07,0.79,0.2
					C171.62,308.74,171.57,309.03,171.39,309.22z"/>
			</g>
			<g>
				<path class="st2" d="M175.16,313.07c-0.03,0.03-0.07,0.06-0.11,0.08c-15.79,9.38-22.57,22.05-22.64,22.18
					c-0.15,0.28-0.5,0.39-0.78,0.24c-0.28-0.15-0.39-0.5-0.24-0.78c0.07-0.13,6.98-13.08,23.07-22.64c0.28-0.16,0.63-0.07,0.79,0.2
					C175.39,312.59,175.35,312.88,175.16,313.07z"/>
			</g>
			<g>
				<path class="st2" d="M178.94,316.92c-0.03,0.03-0.07,0.06-0.11,0.08c-15.79,9.38-22.57,22.05-22.64,22.18
					c-0.15,0.28-0.5,0.39-0.78,0.24c-0.28-0.15-0.39-0.5-0.24-0.78c0.07-0.13,6.98-13.08,23.07-22.64c0.28-0.16,0.63-0.07,0.79,0.2
					C179.17,316.44,179.12,316.73,178.94,316.92z"/>
			</g>
			<g>
				<path class="st2" d="M182.71,320.77c-0.03,0.03-0.07,0.06-0.11,0.08c-15.79,9.38-22.57,22.05-22.64,22.18
					c-0.15,0.28-0.5,0.39-0.78,0.24c-0.28-0.15-0.39-0.5-0.24-0.78c0.07-0.13,6.98-13.08,23.07-22.64c0.28-0.16,0.63-0.07,0.79,0.2
					C182.94,320.29,182.9,320.58,182.71,320.77z"/>
			</g>
			<g>
				<path class="st2" d="M186.49,324.62c-0.03,0.03-0.07,0.06-0.11,0.08c-15.79,9.38-22.57,22.05-22.64,22.18
					c-0.15,0.28-0.5,0.39-0.78,0.24c-0.28-0.15-0.39-0.5-0.24-0.78c0.07-0.13,6.98-13.08,23.07-22.64c0.28-0.16,0.63-0.07,0.79,0.2
					C186.72,324.14,186.67,324.43,186.49,324.62z"/>
			</g>
			<g>
				<path class="st2" d="M190.26,328.47c-0.03,0.03-0.07,0.06-0.11,0.08c-15.79,9.38-22.57,22.05-22.64,22.18
					c-0.15,0.28-0.5,0.39-0.78,0.24c-0.28-0.15-0.39-0.5-0.24-0.78c0.07-0.13,6.98-13.08,23.07-22.64c0.28-0.16,0.63-0.07,0.79,0.2
					C190.49,327.99,190.45,328.28,190.26,328.47z"/>
			</g>
			<g>
				<path class="st2" d="M161.46,288.75c0.03-0.03,0.06-0.07,0.09-0.11c9.69-15.6,22.49-22.13,22.62-22.19
					c0.29-0.14,0.4-0.49,0.26-0.78c-0.14-0.29-0.49-0.4-0.78-0.26c-0.13,0.07-13.22,6.72-23.09,22.62c-0.17,0.27-0.09,0.63,0.19,0.8
					C160.98,288.97,161.27,288.93,161.46,288.75z"/>
			</g>
			<g>
				<path class="st2" d="M165.23,292.6c0.03-0.03,0.06-0.07,0.09-0.11c9.69-15.6,22.49-22.13,22.62-22.19
					c0.29-0.14,0.4-0.49,0.26-0.78c-0.14-0.29-0.49-0.4-0.78-0.26c-0.13,0.07-13.22,6.72-23.09,22.62c-0.17,0.27-0.09,0.63,0.19,0.8
					C164.75,292.82,165.04,292.78,165.23,292.6z"/>
			</g>
			<g>
				<path class="st2" d="M169.01,296.45c0.03-0.03,0.06-0.07,0.09-0.11c9.69-15.6,22.49-22.13,22.62-22.19
					c0.29-0.14,0.4-0.49,0.26-0.78c-0.14-0.29-0.49-0.4-0.78-0.26c-0.13,0.07-13.22,6.72-23.09,22.62c-0.17,0.27-0.09,0.63,0.19,0.8
					C168.53,296.67,168.82,296.63,169.01,296.45z"/>
			</g>
			<g>
				<path class="st2" d="M172.78,300.3c0.03-0.03,0.06-0.07,0.09-0.11c9.69-15.6,22.49-22.13,22.62-22.19
					c0.29-0.14,0.4-0.49,0.26-0.78c-0.14-0.29-0.49-0.4-0.78-0.26c-0.13,0.07-13.22,6.72-23.09,22.62c-0.17,0.27-0.09,0.63,0.19,0.8
					C172.3,300.52,172.59,300.48,172.78,300.3z"/>
			</g>
			<g>
				<path class="st2" d="M176.55,304.15c0.03-0.03,0.06-0.07,0.09-0.11c9.69-15.6,22.49-22.13,22.62-22.19
					c0.29-0.14,0.4-0.49,0.26-0.78c-0.14-0.29-0.49-0.4-0.78-0.26c-0.13,0.07-13.22,6.72-23.09,22.62c-0.17,0.27-0.09,0.63,0.19,0.8
					C176.07,304.37,176.37,304.33,176.55,304.15z"/>
			</g>
			<g>
				<path class="st2" d="M180.33,308c0.03-0.03,0.06-0.07,0.09-0.11c9.69-15.6,22.49-22.13,22.62-22.19
					c0.29-0.14,0.4-0.49,0.26-0.78c-0.14-0.29-0.49-0.4-0.78-0.26c-0.13,0.07-13.22,6.72-23.09,22.62c-0.17,0.27-0.09,0.63,0.19,0.8
					C179.85,308.22,180.14,308.18,180.33,308z"/>
			</g>
			<g>
				<path class="st2" d="M184.1,311.85c0.03-0.03,0.06-0.07,0.09-0.11c9.69-15.6,22.49-22.13,22.62-22.19
					c0.29-0.14,0.4-0.49,0.26-0.78c-0.14-0.29-0.49-0.4-0.78-0.26c-0.13,0.07-13.22,6.72-23.09,22.62c-0.17,0.27-0.09,0.63,0.19,0.8
					C183.62,312.07,183.92,312.03,184.1,311.85z"/>
			</g>
			<g>
				<path class="st2" d="M187.88,315.7c0.03-0.03,0.06-0.07,0.09-0.11c9.69-15.6,22.49-22.13,22.62-22.19
					c0.29-0.14,0.4-0.49,0.26-0.78c-0.14-0.29-0.49-0.4-0.78-0.26c-0.13,0.07-13.22,6.72-23.09,22.62c-0.17,0.27-0.09,0.63,0.19,0.8
					C187.4,315.92,187.69,315.88,187.88,315.7z"/>
			</g>
			<g>
				<path class="st2" d="M191.65,319.55c0.03-0.03,0.06-0.07,0.09-0.11c9.69-15.6,22.49-22.13,22.62-22.19
					c0.29-0.14,0.4-0.49,0.26-0.78c-0.14-0.29-0.49-0.4-0.78-0.26c-0.13,0.07-13.22,6.72-23.09,22.62c-0.17,0.27-0.09,0.63,0.19,0.8
					C191.17,319.77,191.47,319.73,191.65,319.55z"/>
			</g>
			<g>
				<path class="st2" d="M195.43,323.4c0.03-0.03,0.06-0.07,0.09-0.11c9.69-15.6,22.49-22.13,22.62-22.19
					c0.29-0.14,0.4-0.49,0.26-0.78c-0.14-0.29-0.49-0.4-0.78-0.26c-0.13,0.07-13.22,6.72-23.09,22.62c-0.17,0.27-0.09,0.63,0.19,0.8
					C194.95,323.62,195.24,323.58,195.43,323.4z"/>
			</g>
		</g>
		<g>
			<polygon class="st24" points="154.71,305.45 160.95,316.18 162.57,303.87 			"/>
			<path class="st22" d="M149.68,251.2l-3.55,0.71c-1.15,0.23-2.27-0.52-2.51-1.67l-1.73-8.61c-0.23-1.15,0.52-2.28,1.67-2.51
				l3.55-0.71c1.15-0.23,2.28,0.52,2.51,1.67l1.73,8.61C151.58,249.85,150.83,250.97,149.68,251.2z"/>
			
				<rect x="149.26" y="250.71" transform="matrix(0.9804 -0.1969 0.1969 0.9804 -51.7247 35.6188)" class="st25" width="8.03" height="54.48"/>
			
				<rect x="142.64" y="243.42" transform="matrix(0.9804 -0.1969 0.1969 0.9804 -46.3247 33.951)" class="st24" width="9.89" height="13.04"/>
		</g>
	</g>
	<g>
		<rect id="XMLID_505_" x="412.56" y="284.21" class="st11" width="55.03" height="57.26"/>
		<polygon id="XMLID_504_" class="st26" points="452.11,415.33 451,427.04 456.29,427.88 459.92,416.86 		"/>
		<path id="XMLID_503_" class="st27" d="M499.94,251.68c0,0-13.2,22.68-17.66,23.61c-4.46,0.93-14.69-7.44-14.69-7.44l2.23-52.43
			c0,0,10.04,1.12,11.9,7.62s0.56,34.76,0.56,34.76l15.06-8.92L499.94,251.68z"/>
		<rect id="XMLID_502_" x="410.7" y="361.55" class="st25" width="68.79" height="7.44"/>
		<rect id="XMLID_501_" x="476.14" y="341.1" class="st25" width="7.06" height="81.06"/>
		<rect id="XMLID_500_" x="409.21" y="341.1" class="st25" width="7.06" height="81.06"/>
		<path id="XMLID_499_" class="st25" d="M476.47,293.14c0.5-1.2,0.78-2.52,0.78-3.9v-12.64c0-5.65-4.58-10.22-10.23-10.22h-55.4
			c-5.65,0-10.22,4.58-10.22,10.22v12.64c0,1.38,0.28,2.7,0.78,3.9H476.47z"/>
		<path id="XMLID_498_" class="st25" d="M490.59,345.94c0.72-1.27,1.16-2.71,1.16-4.28c0-4.83-3.91-8.74-8.74-8.74l-72.5-0.01
			c-4.83,0-8.74,3.91-8.74,8.74c0,1.56,0.44,3.01,1.16,4.28L490.59,345.94z"/>
		<path id="XMLID_497_" class="st28" d="M416.88,215.6c0,0,5.81-3.42,9.71-3.42c3.9,0,16.02-1.94,16.02-1.94l17.44,1.94
			c0,0,19.24,6.13,20.08,8.64c0.84,2.51-2.79,34.58-4.74,39.32c-1.95,4.74-3.35,26.49-3.35,26.49l-62.19,25.66
			c0,0,6.69-31.79,8.09-39.88C419.34,264.32,416.88,215.6,416.88,215.6z"/>
		<g id="XMLID_494_" class="st29">
			<path id="XMLID_496_" class="st30" d="M453.89,228.85c0,0,14.61,13.41,25,10.08c1-8.66,1.65-16.88,1.24-18.1
				c-0.84-2.51-20.08-8.64-20.08-8.64l-14.5-1.12c0,0-0.17,0.01-0.43,0.03L453.89,228.85z"/>
			<path id="XMLID_495_" class="st30" d="M429.85,285.7c3.35-4.65,24.17-17.1,24.17-17.1l5.02-22.68c0,0-20.26,7.44-23.8-0.19
				c-3.53-7.62,2.23-18.78-6.88-22.87c-2.44-1.1-4.8-2.61-6.94-4.23c-0.53,11.23-2.3,46.98-3.47,53.78
				c-1.39,8.09-8.09,39.88-8.09,39.88l31.75-13.1C435.2,294.55,427.89,288.42,429.85,285.7z"/>
		</g>
		<path id="XMLID_493_" class="st19" d="M475.12,312.85c0,0,9.48,14.78,8.37,27.61c-1.12,12.83-22.87,78.64-22.87,78.64l-9.76-2.23
			c0,0,10.6-71.11,4.46-77.24c-6.13-6.13-27.61-10.88-27.61-10.88S448.07,295.84,475.12,312.85z"/>
		<g id="XMLID_465_">
			<path id="XMLID_492_" class="st10" d="M442.19,279.57c0,0,2.23,4.65-0.46,7.16l36.44-0.09l-0.12-6.69L442.19,279.57z"/>
			<path id="XMLID_491_" class="st10" d="M441.63,255.4c0,0,2.23,4.65-0.46,7.16l36.44-0.09l-0.12-6.69L441.63,255.4z"/>
			<polygon id="XMLID_490_" class="st11" points="440.61,252.8 440.61,255.77 477.49,255.77 477.49,262.09 440.61,262.09 
				440.61,265.07 481.32,265.07 481.32,264.95 481.32,262.09 481.32,255.77 481.32,252.8 			"/>
			<g id="XMLID_487_">
				<line id="XMLID_489_" class="st12" x1="443.54" y1="257.07" x2="476.23" y2="257.07"/>
				<rect id="XMLID_488_" x="443.54" y="256.79" class="st13" width="32.7" height="0.56"/>
			</g>
			<g id="XMLID_484_">
				<line id="XMLID_486_" class="st12" x1="443.54" y1="258.82" x2="476.23" y2="258.82"/>
				<rect id="XMLID_485_" x="443.54" y="258.54" class="st13" width="32.7" height="0.56"/>
			</g>
			<g id="XMLID_478_">
				<line id="XMLID_483_" class="st12" x1="443.54" y1="260.49" x2="476.23" y2="260.49"/>
				<rect id="XMLID_482_" x="443.54" y="260.21" class="st13" width="32.7" height="0.56"/>
				<rect id="XMLID_481_" x="444.02" y="281.19" class="st14" width="32.7" height="0.56"/>
				<rect id="XMLID_480_" x="444.02" y="282.94" class="st14" width="32.7" height="0.56"/>
				<rect id="XMLID_479_" x="444.02" y="284.61" class="st14" width="32.7" height="0.56"/>
			</g>
			<path id="XMLID_477_" class="st10" d="M446.28,267.67c0,0,2.23,4.65-0.46,7.16l36.44-0.09l-0.12-6.69L446.28,267.67z"/>
			<polygon id="XMLID_476_" class="st15" points="445.26,265.07 445.26,268.04 482.13,268.04 482.13,274.36 445.26,274.36 
				445.26,277.34 485.97,277.34 485.97,277.22 485.97,274.36 485.97,268.04 485.97,265.07 			"/>
			<g id="XMLID_474_">
				<rect id="XMLID_475_" x="448.18" y="269.06" class="st13" width="32.7" height="0.56"/>
			</g>
			<g id="XMLID_472_">
				<rect id="XMLID_473_" x="448.18" y="270.81" class="st13" width="32.7" height="0.56"/>
			</g>
			<g id="XMLID_470_">
				<rect id="XMLID_471_" x="448.18" y="272.48" class="st13" width="32.7" height="0.56"/>
			</g>
			<polygon id="XMLID_469_" class="st16" points="441.17,276.97 441.17,279.94 478.04,279.94 478.04,286.26 441.17,286.26 
				441.17,289.24 481.88,289.24 481.88,289.12 481.88,286.26 481.88,279.94 481.88,276.97 			"/>
			<path id="XMLID_468_" class="st31" d="M444.09,281.24"/>
			<path id="XMLID_467_" class="st31" d="M444.09,282.98"/>
			<path id="XMLID_466_" class="st31" d="M444.09,284.66"/>
		</g>
		<path id="XMLID_464_" class="st26" d="M528.66,382.84l8.64,11.99c0,0,5.02-2.23,4.74-4.18c-0.28-1.95-8.64-11.99-8.64-11.99
			L528.66,382.84z"/>
		<path id="XMLID_463_" class="st19" d="M535.21,393.16c0,0,6.14-1.12,6.55-3.9c0.42-2.79-0.28-3.63,1.67-2.79
			c1.95,0.84,10.46,1.39,15.2,0.7c4.74-0.7,0.42,2.09-0.56,2.93c-0.98,0.84-20.08,8.78-20.08,8.78S533.96,397.76,535.21,393.16z"/>
		<path id="XMLID_462_" class="st10" d="M503.28,233.74l2.79,2.42c0,0-13.57,17.29-14.31,17.48c-0.74,0.19-21.38-1.86-21.38-1.86
			l0.74-15.06l2.97-4.46c0,0,16.55,6.69,16.55,6.13C490.64,237.83,503.28,233.74,503.28,233.74z"/>
		<polygon id="XMLID_461_" class="st16" points="492.87,241.36 470.93,235.04 456.43,257.72 478.74,264.04 494.17,257.72 
			507,235.97 		"/>
		<path id="XMLID_460_" class="st19" d="M457.96,431.14c-0.54,2-3.39,2.97-6.36,2.17c-2.97-0.8-4.95-3.07-4.41-5.08
			c0.54-2,3.76-4.28,6.73-3.47C456.9,425.56,458.5,429.14,457.96,431.14z"/>
		<path id="XMLID_459_" class="st26" d="M462.85,245.64c0,0,1.12-6.13,5.86-6.97c4.74-0.84,10.6,0,9.2,3.35
			c-1.39,3.35-8.09,2.23-8.09,2.23s-5.02,6.69-6.97,5.3C460.89,248.15,462.85,245.64,462.85,245.64z"/>
		<path id="XMLID_458_" class="st28" d="M417.95,214.97c0,0,7.81-5.58,11.71,3.9c3.9,9.48-1.95,40.99-1.95,40.99l36.25-18.59
			l3.81,6.23c0,0-40.9,48.62-57.07,30.49C394.53,259.86,409.03,218.87,417.95,214.97z"/>
		<path id="XMLID_457_" class="st19" d="M474.84,191.82l1.3-4.09c0,0-3.9-1.67-5.21-3.9c-1.3-2.23-4.09-6.88-10.22-7.06
			c-6.14-0.19-12.64,9.3-10.23,16.73c2.42,7.44,11.53,1.86,11.53,1.86S473.54,197.58,474.84,191.82z"/>
		<path id="XMLID_456_" class="st26" d="M452.25,196.84l-11.99,13.94c0,0,4.46,19.8,13.39,18.13c8.92-1.67,3.9-9.76,3.9-9.76
			l5.58-8.37L452.25,196.84z"/>
		<path id="XMLID_455_" class="st31" d="M559.54,429.04"/>
		<polygon id="XMLID_454_" class="st11" points="492.87,241.36 492.81,241.35 479.1,263.9 494.17,257.72 507,235.97 		"/>
		<path id="XMLID_453_" class="st32" d="M455.77,417.98c2.02-13.59,6.27-40.87,10.33-57.92c3.28-13.79,9.91-26.65,14.81-35.15
			c-2.48-6.88-5.79-12.07-5.79-12.07c-27.05-17.01-47.41,15.9-47.41,15.9s21.47,4.74,27.61,10.88c6.13,6.14-4.46,77.24-4.46,77.24
			L455.77,417.98z"/>
		<path id="XMLID_452_" class="st30" d="M463.13,210.78l-10.88-13.94l-3.06,3.56c0.09,6.8,0.75,22.31,4.7,28.45
			c8.55-1.78,3.66-9.7,3.66-9.7L463.13,210.78z"/>
		<path id="XMLID_451_" class="st26" d="M504.03,245.92c0,0-1.67-6.51-5.21-3.9c-3.53,2.6,0,7.44,0,7.44l-2.05,3.53
			C496.78,252.98,504.21,253.17,504.03,245.92z"/>
		<path id="XMLID_450_" class="st26" d="M451.97,198.79c0,0-4.46-7.25-0.84-8.64c3.63-1.39,4.46,5.02,4.46,5.02s5.02-2.23,5.3-6.97
			c0,0,9.76,9.48,13.94,3.63c0,0-2.51,23.42-12.27,21.47C452.81,211.34,451.97,205.48,451.97,198.79z"/>
		<path id="XMLID_449_" class="st30" d="M463.68,201.58c0,0.77-1.25,1.39-2.79,1.39s-2.79-0.62-2.79-1.39
			c0-0.77,1.25-1.39,2.79-1.39S463.68,200.81,463.68,201.58z"/>
		<path id="XMLID_448_" class="st30" d="M472.33,201.79c0,0.65-0.75,1.19-1.67,1.19c-0.92,0-1.67-0.53-1.67-1.19
			c0-0.65,0.75-1.19,1.67-1.19C471.58,200.6,472.33,201.13,472.33,201.79z"/>
		<path id="XMLID_447_" class="st32" d="M418.32,277.52c-19.93-3.43-3.41-51.62,0.9-63.28c-0.79,0.37-1.27,0.72-1.27,0.72
			c-8.92,3.9-23.42,44.9-7.25,63.02c5.62,6.3,14.16,4.44,22.92-0.65C428.82,278.2,423.65,278.44,418.32,277.52z"/>
		<path id="XMLID_446_" class="st19" d="M537.11,381.64c0,0-56.88-98.17-69.89-100.03c-13.01-1.86-43.5,4.46-55.78,24.16
			c-12.27,19.7,2.97,33.84,18.21,33.09c15.24-0.74,35.7-13.75,35.7-13.75l64.69,61.36L537.11,381.64z"/>
		<path id="XMLID_445_" class="st32" d="M466.47,314.52c0,0-32.91,15.34-43.5,13.94c-7.59-1-10.75-14.45-11.92-22
			c-11.49,19.34,3.55,33.14,18.62,32.4c15.24-0.74,35.7-13.75,35.7-13.75l64.69,61.36l3.88-2.65L466.47,314.52z"/>
	</g>
	<g>
		<g id="XMLID_334_">
			<path id="XMLID_444_" class="st10" d="M212.29,407.76c0,0,3.53,7.4-0.77,11.38l57.96-0.01l-0.16-10.65L212.29,407.76z"/>
			<path id="XMLID_443_" class="st10" d="M211.49,369.32c0,0,3.53,7.4-0.77,11.38l57.96-0.01l-0.16-10.65L211.49,369.32z"/>
			<polygon id="XMLID_442_" class="st11" points="209.87,365.17 209.86,369.91 268.52,370.04 268.5,380.1 209.84,379.96 
				209.83,384.69 274.59,384.84 274.59,384.66 274.6,380.11 274.62,370.05 274.63,365.32 			"/>
			<g id="XMLID_439_">
				<line id="XMLID_441_" class="st12" x1="214.51" y1="371.99" x2="266.52" y2="372.11"/>
				
					<rect id="XMLID_440_" x="240.07" y="346.04" transform="matrix(2.311208e-03 -1 1 2.311208e-03 -132.0841 611.7028)" class="st13" width="0.89" height="52.01"/>
			</g>
			<g id="XMLID_436_">
				<line id="XMLID_438_" class="st12" x1="214.51" y1="374.76" x2="266.51" y2="374.88"/>
				
					<rect id="XMLID_437_" x="240.07" y="348.81" transform="matrix(2.311208e-03 -1 1 2.311208e-03 -134.8628 614.4623)" class="st13" width="0.89" height="52.01"/>
			</g>
			<g id="XMLID_430_">
				<line id="XMLID_435_" class="st12" x1="214.5" y1="377.42" x2="266.51" y2="377.54"/>
				
					<rect id="XMLID_434_" x="240.06" y="351.48" transform="matrix(2.311208e-03 -1 1 2.311208e-03 -137.5302 617.1113)" class="st13" width="0.89" height="52.01"/>
				
					<rect id="XMLID_433_" x="240.76" y="384.86" transform="matrix(2.309285e-03 -1 1 2.309285e-03 -170.2118 651.1136)" class="st14" width="0.89" height="52.01"/>
				
					<rect id="XMLID_432_" x="240.75" y="387.63" transform="matrix(2.311208e-03 -1 1 2.311208e-03 -172.9909 653.8723)" class="st14" width="0.89" height="52.01"/>
				
					<rect id="XMLID_431_" x="240.75" y="390.29" transform="matrix(2.309285e-03 -1 1 2.309285e-03 -175.6579 656.5222)" class="st14" width="0.89" height="52.01"/>
			</g>
			<path id="XMLID_429_" class="st10" d="M218.84,388.85c0,0,3.53,7.4-0.77,11.38l57.96-0.01l-0.16-10.65L218.84,388.85z"/>
			<polygon id="XMLID_428_" class="st33" points="217.22,384.71 217.21,389.44 275.87,389.57 275.85,399.63 217.19,399.49 
				217.17,404.22 281.93,404.37 281.93,404.19 281.94,399.64 281.97,389.59 281.98,384.86 			"/>
			<g id="XMLID_426_">
				
					<rect id="XMLID_427_" x="247.42" y="365.58" transform="matrix(2.311208e-03 -1 1 2.311208e-03 -144.2866 638.5395)" class="st13" width="0.89" height="52.01"/>
			</g>
			<g id="XMLID_350_">
				
					<rect id="XMLID_351_" x="247.42" y="368.35" transform="matrix(2.311208e-03 -1 1 2.311208e-03 -147.0652 641.299)" class="st13" width="0.89" height="52.01"/>
			</g>
			<g id="XMLID_346_">
				
					<rect id="XMLID_349_" x="247.41" y="371.01" transform="matrix(2.311208e-03 -1 1 2.311208e-03 -149.7327 643.9479)" class="st13" width="0.89" height="52.01"/>
			</g>
			<polygon id="XMLID_338_" class="st16" points="210.67,403.62 210.66,408.35 269.32,408.48 269.3,418.54 210.64,418.4 
				210.63,423.13 275.38,423.28 275.39,423.1 275.4,418.55 275.42,408.5 275.43,403.77 			"/>
			<path id="XMLID_337_" class="st34" d="M215.31,410.43"/>
			<path id="XMLID_336_" class="st34" d="M215.31,413.2"/>
			<path id="XMLID_335_" class="st34" d="M215.3,415.86"/>
		</g>
		<g id="XMLID_248_">
			<path id="XMLID_333_" class="st10" d="M206.31,354.88c0,0,3.88,8.13-0.84,12.51l63.7-0.02l-0.18-11.7L206.31,354.88z"/>
			<path id="XMLID_331_" class="st10" d="M205.43,312.63c0,0,3.88,8.13-0.84,12.51l63.7-0.02l-0.18-11.7L205.43,312.63z"/>
			<polygon id="XMLID_318_" class="st11" points="203.66,308.07 203.64,313.27 268.12,313.42 268.09,324.47 203.62,324.32 
				203.61,329.52 274.78,329.69 274.78,329.48 274.8,324.49 274.82,313.44 274.83,308.24 			"/>
			<g id="XMLID_314_">
				<line id="XMLID_317_" class="st12" x1="208.76" y1="315.56" x2="265.92" y2="315.69"/>
				
					<rect id="XMLID_316_" x="236.85" y="287.04" transform="matrix(2.311002e-03 -1 1 2.311002e-03 -78.8351 552.2333)" class="st13" width="0.98" height="57.16"/>
			</g>
			<g id="XMLID_311_">
				<line id="XMLID_313_" class="st12" x1="208.75" y1="318.61" x2="265.91" y2="318.74"/>
				
					<rect id="XMLID_312_" x="236.84" y="290.09" transform="matrix(2.311002e-03 -1 1 2.311002e-03 -81.889 555.2662)" class="st13" width="0.98" height="57.16"/>
			</g>
			<g id="XMLID_304_">
				<line id="XMLID_310_" class="st12" x1="208.74" y1="321.53" x2="265.9" y2="321.66"/>
				
					<rect id="XMLID_309_" x="236.84" y="293.02" transform="matrix(2.311002e-03 -1 1 2.311002e-03 -84.8209 558.1777)" class="st13" width="0.98" height="57.16"/>
				
					<rect id="XMLID_308_" x="237.61" y="329.7" transform="matrix(2.311002e-03 -1 1 2.311002e-03 -120.7417 595.5488)" class="st14" width="0.98" height="57.16"/>
				
					<rect id="XMLID_307_" x="237.6" y="332.75" transform="matrix(2.311006e-03 -1 1 2.311006e-03 -123.7957 598.5817)" class="st14" width="0.98" height="57.16"/>
				
					<rect id="XMLID_306_" x="237.59" y="335.68" transform="matrix(2.311002e-03 -1 1 2.311002e-03 -126.7276 601.4933)" class="st14" width="0.98" height="57.16"/>
			</g>
			<path id="XMLID_303_" class="st10" d="M213.51,334.1c0,0,3.88,8.13-0.84,12.51l63.7-0.02l-0.18-11.7L213.51,334.1z"/>
			<polygon id="XMLID_302_" class="st18" points="211.73,329.54 211.72,334.74 276.19,334.89 276.17,345.94 211.69,345.79 
				211.68,350.99 282.86,351.16 282.86,350.95 282.87,345.96 282.9,334.91 282.91,329.71 			"/>
			<g id="XMLID_300_">
				
					<rect id="XMLID_301_" x="244.93" y="308.51" transform="matrix(2.311006e-03 -1 1 2.311006e-03 -92.2468 581.7294)" class="st13" width="0.98" height="57.16"/>
			</g>
			<g id="XMLID_298_">
				
					<rect id="XMLID_299_" x="244.92" y="311.56" transform="matrix(2.311002e-03 -1 1 2.311002e-03 -95.3008 584.7623)" class="st13" width="0.98" height="57.16"/>
			</g>
			<g id="XMLID_296_">
				
					<rect id="XMLID_297_" x="244.91" y="314.49" transform="matrix(2.311006e-03 -1 1 2.311006e-03 -98.2327 587.674)" class="st13" width="0.98" height="57.16"/>
			</g>
			<polygon id="XMLID_294_" class="st19" points="204.53,350.33 204.52,355.53 268.99,355.67 268.97,366.73 204.5,366.58 
				204.48,371.78 275.66,371.94 275.66,371.74 275.67,366.74 275.7,355.69 275.71,350.49 			"/>
			<path id="XMLID_293_" class="st34" d="M209.63,357.81"/>
			<path id="XMLID_254_" class="st34" d="M209.63,360.86"/>
			<path id="XMLID_249_" class="st34" d="M209.62,363.79"/>
		</g>
		<path id="XMLID_222_" class="st26" d="M238.02,319.64c0,0-8.49,0.2-9.09,5.86c-0.61,5.66,1.62,18.99,6.06,16.16
			c4.44-2.83-0.2-12.12,1.62-14.55c1.82-2.42,5.05-4.44,5.05-4.44L238.02,319.64z"/>
		<path id="XMLID_217_" class="st19" d="M238.93,192.21c0,0,3.49-4.85,7.58-2.12c4.09,2.73,7.73,16.67,14.85,18.03
			c7.12,1.36,1.82,9.85-3.48,9.24c0,0,3.79,0.61,2.88,4.09c-0.91,3.49-4.55,5-7.27,3.33c0,0,1.82,3.18-1.21,4.24
			c-3.03,1.06-8.64-1.06-8.64-1.06l-8.18,0.3c0,0-7.12,4.55-9.24,1.52c-2.12-3.03-0.61-5.61-0.61-5.61s-3.03,3.03-5.61,0.61
			c-2.58-2.42-0.61-5.61,1.06-6.52c0,0-5.3,2.27-6.97-1.36c-1.67-3.64-0.76-6.21,2.73-8.03c3.49-1.82,10.91-7.73,11.67-11.97
			C229.24,192.66,234.54,184.18,238.93,192.21z"/>
		<path id="XMLID_216_" class="st30" d="M251.16,205.69c-5.86-8.08-4.24-11.52-6.97-11.21c-2.73,0.3-4.04,2.93-4.04,2.93
			s-2.53-5.15-6.36-3.03c-3.84,2.12-4.85,18.38-14.04,20.3c-2.58,0.54-4.56,0.87-6.1,1.06c0.12,0.38,0.26,0.76,0.44,1.16
			c1.67,3.64,6.97,1.36,6.97,1.36c-1.67,0.91-3.64,4.09-1.06,6.52c2.58,2.42,5.61-0.61,5.61-0.61s-1.52,2.58,0.61,5.61
			c2.12,3.03,9.24-1.52,9.24-1.52l8.18-0.3c0,0,5.61,2.12,8.64,1.06c3.03-1.06,1.21-4.24,1.21-4.24c2.73,1.67,6.36,0.15,7.27-3.33
			c0.91-3.49-2.88-4.09-2.88-4.09c3.76,0.43,7.49-3.7,6.83-6.63C262.27,211.33,255.82,212.13,251.16,205.69z"/>
		<path id="XMLID_215_" class="st35" d="M249.74,285.5h-18.37c-4.02,0-7.28-3.26-7.28-7.28v-43.83c0-4.02,3.26-7.28,7.28-7.28h18.37
			c4.02,0,7.28,3.26,7.28,7.28v43.83C257.01,282.24,253.76,285.5,249.74,285.5z"/>
		<path id="XMLID_214_" class="st36" d="M246.71,226.91c-9.09,0-16.47,7.37-16.47,16.47v6.53l5.15,6.65c0,0,2.12,1.06,8.03,4.7
			c5.91,3.64,2.27,6.06-1.52,7.12c-3.79,1.06,0.91,3.33,6.06,5.61c4.24,1.87-8.47,5.18-13.09,6.29c2.99,3.09,7.18,5.02,11.82,5.02
			c9.09,0,16.47-7.37,16.47-16.47v-25.46C263.18,234.28,255.8,226.91,246.71,226.91z"/>
		<path id="XMLID_213_" class="st37" d="M290.75,271.76c0,0-5.45,1.21-17.88,5.45c-12.42,4.24-18.79,4.55-18.79,4.55l-20.76,1.36
			c0,0-14.09-12.88-20.46-13.18c-6.36-0.3-12.73,5.15-12.43,10c0.3,4.85,6.06,33.03,26.97,33.64c20.91,0.61,27.58,1.21,40.61-7.27
			C281.06,297.82,304.69,280.24,290.75,271.76z"/>
		<path id="XMLID_208_" class="st26" d="M260.25,329.34c0,0,5.45,2.83,5.66,7.48c0.2,4.65-4.44,9.9-0.2,11.11
			s10.91-15.76,7.88-17.58c-3.03-1.82-10.1-4.44-10.1-4.44L260.25,329.34z"/>
		<path id="XMLID_207_" class="st38" d="M295.15,272.08c-14.95-9.56-58.95,47.25-58.95,47.25l3.33,5.76c0,0,4.97-2,12.01-5.33
			C260.21,306.05,278.99,278.8,295.15,272.08z"/>
		<path id="XMLID_206_" class="st39" d="M230.35,231.96c0.44-0.47-7.27,3.23-11.11,12.93c-3.84,9.7-12.12,26.06-9.7,35.15
			c2.42,9.09,6.06,10.3,12.93,6.87C229.34,283.48,220.85,242.06,230.35,231.96z"/>
		<path id="XMLID_205_" class="st19" d="M199.54,272.67c0,0,2.42-8.79,12.12-6.67c9.7,2.12,56.37,61.52,56.37,61.52l-4.24,4.85
			C263.78,332.37,194.08,300.55,199.54,272.67z"/>
		<path id="XMLID_198_" class="st39" d="M251.23,230.14c-0.44-0.47,7.27,3.23,11.11,12.93c3.84,9.7,12.12,26.06,9.7,35.15
			c-2.42,9.09-6.06,10.3-12.93,6.87C252.24,281.66,260.72,240.24,251.23,230.14z"/>
		<rect id="XMLID_197_" x="235.6" y="218.88" class="st40" width="10.3" height="16.06"/>
		<g id="XMLID_184_">
			<path id="XMLID_196_" class="st41" d="M270.02,235.08l-5.32,28.54c-0.36,1.93-2.03,3.34-3.99,3.36
				c-8.75,0.11-32.09,0.37-40.88,0.29c-1.98-0.02-3.65-1.44-4-3.38l-5.15-28.38c-0.46-2.51,1.46-4.83,4.01-4.85l51.26-0.45
				C268.53,230.19,270.5,232.54,270.02,235.08z"/>
			<path id="XMLID_193_" class="st42" d="M264.43,270.58l-48.05,0.2c-0.59,0-1.08-0.48-1.08-1.07l-0.01-1.77
				c0-0.59,0.48-1.08,1.07-1.08l48.05-0.2c0.59,0,1.08,0.48,1.08,1.07l0.01,1.77C265.5,270.1,265.02,270.58,264.43,270.58z"/>
			<path id="XMLID_186_" class="st10" d="M244.4,250.06c-0.03-0.86-0.43-1.63-1.04-2.24c-0.47,0.77-1.38,1.31-2.46,1.35
				c-1.45,0.05-2.67-0.82-2.93-2.01c-1.23,0.67-2.04,1.86-1.99,3.19c0.07,2,2.01,3.55,4.33,3.47S244.47,252.06,244.4,250.06z"/>
		</g>
		<path id="XMLID_183_" class="st26" d="M247.12,206.45c-1.67-3.64-1.06-9.39-4.24-8.79c-3.18,0.61-3.33,2.42-3.33,2.42
			s-0.91-2.73-2.58-2.42c-1.67,0.3-4.39,1.36-4.85,6.97c-0.45,5.61,2.27,7.73-2.27,9.39c-1.19,0.44-2.08,1-2.76,1.59
			c1.68,6.62,6.85,11.44,12.99,11.44c7.41,0,13.43-7.05,13.55-15.79C251.38,210.37,248.17,208.75,247.12,206.45z"/>
		<path id="XMLID_178_" class="st38" d="M210.14,288.93c5.86,6.67,11.72,1.41,17.78,1.82c5.16,0.34,30.97,29.83,38.52,38.58
			l1.58-1.81c0,0-46.67-59.4-56.37-61.52c-6.15-1.34-9.37,1.69-10.9,4.1C205.55,273.47,205.22,283.33,210.14,288.93z"/>
		<path id="XMLID_147_" class="st10" d="M302.14,202.75l-3.09,0.34c0,0-5.6,3.08-8.4,10.06c0,0-9.08,0.36-12.49,4.06l-1.88,2.56
			l2.81,3.9l13.01-6.04c0,0,11.7-11.58,11.6-11.74C303.6,205.72,302.14,202.75,302.14,202.75z"/>
		<polygon id="XMLID_146_" class="st19" points="302.58,201.56 291.85,213.13 306.75,236.29 315.72,223.91 		"/>
		<polygon id="XMLID_138_" class="st19" points="274.39,219.86 289.31,214.91 304.22,238.07 289.28,241.07 		"/>
		
			<rect id="XMLID_135_" x="296.23" y="211.6" transform="matrix(0.8409 -0.5412 0.5412 0.8409 -74.708 197.2383)" class="st43" width="3.79" height="28.17"/>
		<path id="XMLID_134_" class="st10" d="M173.69,202.75l3.09,0.34c0,0,5.6,3.08,8.4,10.06c0,0,9.08,0.36,12.49,4.06l1.88,2.56
			l-2.81,3.9l-13.01-6.04c0,0-11.7-11.58-11.6-11.74C172.24,205.72,173.69,202.75,173.69,202.75z"/>
		<polygon id="XMLID_133_" class="st19" points="173.25,201.56 183.99,213.13 169.09,236.29 160.12,223.91 		"/>
		<polygon id="XMLID_128_" class="st19" points="201.44,219.86 186.52,214.91 171.62,238.07 186.55,241.07 		"/>
		
			<rect id="XMLID_125_" x="175.81" y="211.6" transform="matrix(-0.8409 -0.5412 0.5412 -0.8409 205.0139 511.6445)" class="st43" width="3.79" height="28.17"/>
		<path id="XMLID_118_" class="st26" d="M225.58,247.89c0,0-2.18-4.12-1.55-5.74c0.64-1.62,2.15-1.15,2.15-1.15
			s-3.39-5.99,0.53-5.88c3.92,0.11,4.5,2.86,4.46,5.78c-0.04,2.91-2.41,7.81-2.41,7.81L225.58,247.89z"/>
		<polygon id="XMLID_117_" class="st19" points="223.12,251.16 224.04,245.51 230.86,246.39 229.33,252.2 		"/>
		<path id="XMLID_110_" class="st18" d="M210.75,284.78c-2.96-3.75,3.4-30.14,9.66-33.43c6.28-3.3,9.91-3.28,12.15,0.56
			c2.24,3.84,1.92,32.22-7.01,36.78C216.25,293.43,210.63,285.58,210.75,284.78z"/>
		<path id="XMLID_109_" class="st26" d="M253.71,246.56c0,0,2.03-4.2,1.34-5.79c-0.7-1.59-2.19-1.07-2.19-1.07s3.17-6.11-0.74-5.85
			c-3.91,0.25-4.39,3.02-4.25,5.93c0.15,2.91,2.69,7.72,2.69,7.72L253.71,246.56z"/>
		<path id="XMLID_101_" class="st18" d="M271.05,282.56c2.82-4.91-4.6-29.82-10.85-33.06c-6.3-3.27-10.02-2.92-12.12,1
			c-2.1,3.92-1.56,34.8,8.33,36.5C265.64,288.58,268.48,286.68,271.05,282.56z"/>
		<polygon id="XMLID_100_" class="st19" points="256.28,249.74 255.16,244.13 248.37,245.26 250.12,251 		"/>
		<path id="XMLID_98_" class="st18" d="M271.05,282.56c2.82-4.91-4.6-29.82-10.85-33.06c-6.3-3.27-10.02-2.92-12.12,1
			c-2.1,3.92-1.56,34.8,8.33,36.5C265.64,288.58,268.48,286.68,271.05,282.56z"/>
		<path id="XMLID_84_" class="st30" d="M250.98,214.41c0,0.67-1.19,1.21-2.65,1.21c-1.46,0-2.65-0.54-2.65-1.21
			c0-0.67,1.19-1.21,2.65-1.21C249.79,213.2,250.98,213.74,250.98,214.41z"/>
		<path id="XMLID_43_" class="st30" d="M235.75,215.01c0,0.67-1.12,1.21-2.5,1.21s-2.5-0.54-2.5-1.21c0-0.67,1.12-1.21,2.5-1.21
			S235.75,214.34,235.75,215.01z"/>
		<path id="XMLID_42_" class="st38" d="M253.18,266.61c-2.84-10.11-0.59-15.94,1.85-19.08c-3.28-0.69-5.51,0.28-6.96,2.97
			c-2.1,3.92-1.56,34.8,8.33,36.5c3.88,0.67,6.62,0.71,8.7,0.24C261.82,284.33,256.4,278.09,253.18,266.61z"/>
		<path id="XMLID_41_" class="st38" d="M232.56,251.91c-1.89-3.23-4.78-3.73-9.39-1.85c1.93,2.98,4.3,7.76,4.39,13.05
			c0.12,6.9-1.62,19.49-10.58,26.68c2.31,0.66,5.19,0.61,8.57-1.11C234.49,284.14,234.81,255.76,232.56,251.91z"/>
	</g>
	<g>
		<g>
			<g>
				<path class="st44" d="M398.61,395.4c0,27.52-22.32,49.84-49.85,49.84c-27.53,0-49.84-22.31-49.84-49.84
					c0-27.53,22.31-49.85,49.84-49.85C376.28,345.55,398.61,367.87,398.61,395.4z"/>
			</g>
			<g>
				<g>
					<path class="st45" d="M367.13,365.88c-0.64-0.64-1.12,1.28-0.45,1.48C367.35,367.56,368.13,366.89,367.13,365.88z"/>
				</g>
				<g>
					<path class="st45" d="M331.96,436.56c-0.33-1.91-2.79-1.57-4.03-1.01c-1.24,0.57-1.01,3.25-0.63,4.84
						c2.63,1.26,5.4,2.29,8.27,3.08c0.04-0.26-0.02-0.57-0.25-0.97C334.68,441.42,332.3,438.46,331.96,436.56z"/>
				</g>
				<g>
					<path class="st45" d="M389.19,386.72c2.24,0.12,5.49-3.02,5.05-4.26c-0.45-1.23-3.14-0.67-3.92-2.57
						c-0.79-1.91-2.02-3.47-1.24-3.8c0.79-0.35,2.35,4.92,7.11,3.97c0-0.02-0.01-0.03-0.01-0.04c-0.1-0.28-0.74-2.02-1.56-4.16
						c-1.46-3.43-3.3-6.66-5.45-9.65c0.31,0.47,1.58,4.6-0.09,4.72c-1.68,0.11-2.01-4.04-2.01-4.6c0-0.55-1.61-4.62-1.64-4.69
						c-0.07-0.08-0.13-0.14-0.2-0.22c-0.21-0.22-0.59-0.61-1.07-1.11c-2.81-2.84-5.97-5.34-9.39-7.45c-0.2,0.58,0.16,1.57-0.24,2.05
						c-0.56,0.67-2.24,2.35-4.14,2.24c-1.9-0.12-2.8-1-1.68-1.68c1.12-0.68,1.77-0.22,2.24-2.36c0.43-1.94-0.03-2.36-0.11-2.42
						c-2.12-1.05-4.31-1.95-6.59-2.69c-0.8,2.09-1.02,4.1,0.76,4.22c1.79,0.11,2.8,0.57,2.24,1.91c-0.56,1.34-1.34,1.56-2.58,2.35
						c-1.23,0.79-2.57,1.91-2.8,0.79c-0.22-1.11-1.57-2.91-2.01-4.15c-0.45-1.23-0.56-2.46-1.46-1.34
						c-0.89,1.12-1.97,2.13-2.83,3.36c-0.87,1.23,0.93,1.34,2.6,2.02c1.68,0.67,2.02,1.79,1.57,2.57c-0.44,0.79,0.73,1.05,1.12,1.91
						c0.27,0.59,0.9,1.79,0,2.35c-0.9,0.56-3.81-1.12-4.7-0.57c-0.9,0.57-0.22,3.93-0.56,4.6c-0.34,0.68,2.28,0.9,2.87,1.46
						c0.6,0.56,2.83-0.68,3.4-1.57c0.56-0.9,0.45-1.91,1.57-2.91c1.13-1.01,2.13-0.56,3.02-0.9c0.9-0.34,0-0.9,0.9-0.34
						c0.89,0.56,4.48,2.8,4.26,3.48c-0.23,0.67-1.8,0.22-1.91,1.12c-0.11,0.9,0.79,1.28,1.35,1.26c0.56-0.03,1.45-1.48,2.01-1.82
						c0.56-0.34,1.68,1.07,3.02,1.82c1.34,0.75,1.79-2.27,2.47-2.72c0.67-0.44,5.6-0.34,5.71,0.34c0.12,0.67-4.59-0.12-5.15,1.34
						c-0.56,1.45,1.79,1.9,3.02,2.8c1.23,0.9,2.02,4.03,2.13,6.27C384.38,379.89,386.96,386.6,389.19,386.72z"/>
				</g>
				<g>
					<path class="st45" d="M357.83,370.14c-0.84-0.25-2.19,0.34-2.5,2.36c-0.3,2.02-1.98,2.46-3.1,4.03
						c-1.12,1.57-1.57,7.96-1.01,10.19c0.56,2.24,3.7,5.72,5.83,6.05c2.13,0.33,5.49,0.33,7.51,0c2.01-0.34,4.02,1.79,4.02,3.81
						c0,2.02,2.24,4.14,2.13,5.93c-0.12,1.79-1.56,5.49,0,8.62c1.57,3.14,3.81,6.05,3.92,7.06c0.11,1.01,4.48-0.45,6.61-3.02
						c2.13-2.57,2.24-2.36,2.91-5.04c0.68-2.69,2.13-3.69,2.36-5.15c0.22-1.46,0.22-3.03,0-5.15c-0.22-2.12,3.92-7.05,4.14-8.96
						c0.23-1.91-2.35-1.91-3.36-3.36c-1-1.46-4.48-8.18-4.81-10.31c-0.33-2.13-4.37-2.58-5.49-3.25c-1.12-0.68-2.68,0.56-4.36-0.56
						c-1.68-1.12-4.82-4.26-6.27-4.26C364.89,369.13,359.29,370.59,357.83,370.14z"/>
				</g>
				<g>
					<path class="st45" d="M313.48,391.63c0.13,0.5,0.45,2.13-0.45,3.77c-0.9,1.63-1.24,2.97,0,5.66c1.23,2.68,3.02,3.58,4.37,6.05
						c1.34,2.46,1.12,6.39,1.34,12.21c0.22,5.83,2.24,10.42,5.6,11.76c3.36,1.35-1.24-2.01-0.9-4.25c0.33-2.24,0.22-3.48,1.45-5.16
						c1.24-1.68,1.99-1,3.51-4.03c1.53-3.03,1.08-4.03,2.87-5.03c1.8-1.02,4.37,0.1,4.93-3.36c0.56-3.48-1.68-2.47,0.79-5.6
						c2.46-3.13-0.12-3.69-2.24-4.93c-2.13-1.23-4.26-1.34-5.27-2.57c-1.01-1.23-0.9-0.89-2.69-2.8c-1.79-1.91-3.13-1.68-5.48-3.25
						c-2.36-1.56-4.39-2.8-5.66-1.79C314.38,389.29,313.32,390.99,313.48,391.63z"/>
				</g>
				<g>
					<path class="st45" d="M321.88,353.41c-1.17,0.75-2.31,1.56-3.41,2.4c0.4,1.8-1.41,2.68-1.97,3.46
						c-0.55,0.79,0.12,2.8-0.45,2.92c-0.55,0.12-1.11-2.24-1.19-3.33c-5.99,5.55-10.6,12.56-13.3,20.45
						c0.86,2.12,1.39,3.93,1.72,5.94c0.34,2.02,3.47,0.9,4.48,2.46c1.01,1.57,2.92,2.92,4.15,3.7c1.23,0.79,0-0.78-0.79-2.57
						c-0.78-1.79-1.79-3.81-1.56-5.1c0.22-1.29-1.12-1.73-2.01-0.72c-0.9,1-1.46,1.23-1.9-1.12c-0.45-2.35,2.12-2.69,3.46-3.25
						c1.35-0.56,2.01,0.44,2.92,1.23c0.89,0.79,0.78-0.56,1.01-3.02c0.22-2.46,4.15-7.17,5.37-9.46c1.24-2.29,2.59-3.09,2.91-4.31
						c0.33-1.24,3.03-0.68,5.27,0.11c2.25,0.79,2.13-0.67,1.24-1.79c-0.9-1.12-1.68-1.46-0.79-2.24c0.9-0.79-0.23-1.46-1.12-2.58
						c-0.89-1.12-0.89-2.69-1.23-3.18c-0.34-0.49-1.68,1.62-2.8,1.72C320.78,355.25,321.58,353.62,321.88,353.41z"/>
				</g>
				<g>
					<path class="st45" d="M331.18,348.75c0.67,0.78,1.23,1.24,2.01,2.58c0.78,1.34,2.24,2.35,3.03,0c0.77-2.35,1.85-4.6,1.86-4.62
						C335.7,347.22,333.4,347.91,331.18,348.75z"/>
				</g>
			</g>
		</g>
		<path class="st26" d="M451.2,235.3c0,0,3.81-2.57,5.85-3.72c2.03-1.16,6.74-4.24,7.51-2.2c0.77,2.04-4.57,3.78-4.57,3.78
			s14.52-1.91,14.67,1.15c0.14,3.06-8.52,6.03-15.4,4.91l-6.87,2.96L451.2,235.3z"/>
		<path class="st33" d="M359.38,260.24l-2.57-5.6l48.44-1.68l46.76-19.77l3.86,8.47c0,0-40.9,32.82-90.72,38.51L359.38,260.24z"/>
		<path id="XMLID_40_" class="st46" d="M371.67,329.11c0,0,45.13-8.84,55.73-1.84s14.85,27.48-15.86,37.22
			c-30.71,9.74-60.52,5.06-60.52,5.06l-13.72,12.55c0,0-3.84,0.02-3.55-6.71c0.29-6.73,7.96-10.92,7.96-10.92l3.83-3.86l28.17-3.32
			l-22.1,0.41c0,0-1.07-25.3-0.11-25.62C352.46,331.76,371.67,329.11,371.67,329.11z"/>
		<path id="XMLID_39_" class="st47" d="M351.12,369.58c-0.33-0.73-0.68-1.7-0.88-2.91c-0.36-2.08,0.36-5.14,0.8-6.7l10.49-1.24
			c-0.14,1.85-0.49,7.62,0.04,11.77C355.61,370.21,351.77,369.67,351.12,369.58z"/>
		<path id="XMLID_38_" class="st48" d="M341.71,364.48l3.83-3.86l28.17-3.32l-22.1,0.41c0,0-0.08-1.93-0.18-4.73
			c0.92,0.06,1.79,0.12,2.59,0.17c8.54,0.6,29.03-3.33,37.55-8.27c8.52-4.95,17.71-2.42,17.71-2.42c-10.03,1.11-18.32,9.9-28.34,14
			c-10.02,4.1-31.79,7.4-34.35,7.62c-2.56,0.22-8.51,7.08-8.49,11.14c0.01,1.93,0.5,3.75,1.13,5.14l-1.93,1.76
			c0,0-3.84,0.02-3.55-6.71C334.04,368.67,341.71,364.48,341.71,364.48z"/>
		<path id="XMLID_37_" class="st46" d="M333.02,329.28c0,0-45.2-8.46-55.74-1.36c-10.54,7.09-14.62,27.61,16.17,37.09
			s60.56,4.55,60.56,4.55l13.83,12.43c0,0,3.84-0.02,3.49-6.74c-0.35-6.73-8.05-10.86-8.05-10.86l-3.86-3.83l-28.2-3.08l22.1,0.23
			c0,0,0.85-25.31-0.11-25.62C352.25,331.76,333.02,329.28,333.02,329.28z"/>
		<path id="XMLID_36_" class="st33" d="M378.43,324.96l-10.5-65.84c-0.42-2.66-2.73-4.62-5.42-4.6l-23.16,0.1
			c-1.49,0.01-12.76,0.26-15.15,4.23l-25.09,49.76c-4.11,6.15,8.74,14.74,12.85,8.59l18.35-27.59l-4.3,35.64
			c-0.28,2.29,0.9,4.53,2.97,5.55c15.51,7.6,31.05,7.83,46.6-0.12C377.66,329.6,378.8,327.28,378.43,324.96z"/>
		<path id="XMLID_30_" class="st49" d="M362.54,225.7c0.47-0.09,8.75-11.86,0.24-17.68c0,0-0.76,4.4-3.18,5.37
			c0,0-1.47-3.3-3.42-4.06c0,0-2.96,4.02-7.8,4.32c-4.84,0.31-8.7-2.68-12.5-0.46c-3.8,2.22-3.21,5.21-3.21,5.21
			s-5.4,1.56-5.16,6.09s6.26,12.63,6.26,12.63s4.33,2.08,7.76,0.42c3.43-1.66,0.67-8.13,2.31-9.77
			C345.49,226.14,362.54,225.7,362.54,225.7z"/>
		<path id="XMLID_29_" class="st26" d="M342.46,240.56l-2.02,15.38c-0.32,8,17.78,8.72,18.1,0.72l-2.46-13.12l-12.98-2.83"/>
		<path id="XMLID_28_" class="st50" d="M363.37,208.45c0.72,2.33,1.51,6.83-1.87,9.54l-1.61-2c0,0-1.9,4.25-8.46,5.8
			c-6.56,1.55-13.21,0.14-14,2.86c-0.79,2.73,1.54,3.92,1.54,3.92s-4.17-1.02-5.44,1.14c-1.27,2.17-0.62,3.93-0.62,3.93
			s-4.26-4.71-4.12-8.39c0.14-3.68,3.9-6.86,3.9-6.86s-5.4,1.56-5.16,6.09c0.25,4.52,6.26,12.63,6.26,12.63s4.33,2.08,7.76,0.42
			c3.43-1.66,0.67-8.13,2.31-9.77c1.64-1.63,18.69-2.08,18.69-2.08C363,225.6,370.88,214.41,363.37,208.45z"/>
		<path id="XMLID_27_" class="st51" d="M357.63,251.78l-1.54-8.23l-12.98-2.83l-0.64-0.16l-0.8,6.09
			C347.37,251.19,353.72,251.9,357.63,251.78z"/>
		<path id="XMLID_26_" class="st26" d="M361.29,221.4c0,0,6.57,18.29,3.24,22.87c-3.34,4.58-4.56,5.8-10.66,5.55
			c-6.09-0.26-12.15-6.9-12.15-6.9s-4.87-1.48-6.75-4.38s-0.96-7.32,1.52-6.34c2.48,0.98,3.67,2.86,3.67,2.86s3.27,0.82,2.77-2.51
			c-0.5-3.33-2.73-3.87-1.31-6.6C343.03,223.23,359.61,227.77,361.29,221.4z"/>
		<path id="XMLID_24_" class="st51" d="M361.29,221.4c-0.33,1.25-1.24,2.08-2.5,2.63c2.08,5.64,5.58,15.92,4.5,18.79
			c-1.17,3.12-3.89,5.76-5.04,6.77c2.64-0.57,3.94-2.12,6.27-5.32C367.86,239.69,361.29,221.4,361.29,221.4z"/>
		<path id="XMLID_23_" class="st48" d="M347.35,329.69c5.33-1.52,2.94-12.18,2.71-14.96c-0.23-2.78-13.04-4.22-15.83-6.77
			c-2.79-2.55-1.18-25.62-1.18-25.62c-4.46,5.04-8.47,13.7-10.8,19.34l8.04-12.08l-4.3,35.64c-0.28,2.29,0.9,4.53,2.97,5.55
			c8.22,4.03,16.45,5.97,24.68,5.73C349.86,334.54,343.48,330.79,347.35,329.69z"/>
		<path id="XMLID_19_" class="st47" d="M336.17,313.89l11.58,2.31c0,0-0.9-2.73,2.72-3c3.62-0.27,3.94,4.3,3.94,4.3
			s6.98,0.05,8.17,4.77c1.18,4.72-1.53,9.83-5.59,8.97c-4.06-0.86-10.44-2.27-12.04-3.91c-1.61-1.64-1.61-1.64-1.61-1.64l-9.81-3.16
			L336.17,313.89z"/>
		<path id="XMLID_18_" class="st33" d="M304.86,318.63l37.72,8.67l2.61-13.34l-38.38-8.38
			C298.77,304.38,296.82,317.43,304.86,318.63z"/>
		<path id="XMLID_16_" class="st47" d="M353.91,369.56c0.33-0.74,0.66-1.7,0.86-2.91c0.34-2.08-0.41-5.14-0.85-6.7l-10.5-1.15
			c0.15,1.85,0.55,7.62,0.06,11.77C349.43,370.24,353.27,369.67,353.91,369.56z"/>
		<path id="XMLID_15_" class="st48" d="M363.28,364.38l-3.86-3.83l-28.2-3.08l22.1,0.23c0,0,0.07-1.93,0.14-4.74
			c-0.92,0.07-1.79,0.13-2.59,0.2c-8.54,0.68-29.06-3.08-37.62-7.95c-8.56-4.88-17.73-2.27-17.73-2.27
			c10.04,1.02,18.41,9.74,28.46,13.76c10.05,4.01,31.85,7.12,34.41,7.33c2.56,0.2,8.57,7.01,8.59,11.07
			c0.01,1.93-0.47,3.75-1.08,5.15l1.94,1.75c0,0,3.84-0.02,3.49-6.74C370.98,368.51,363.28,364.38,363.28,364.38z"/>
		<g id="XMLID_9_">
			<path id="XMLID_14_" class="st41" d="M393.19,312.5l-7.27,38.97c-0.49,2.63-2.77,4.56-5.45,4.59
				c-11.95,0.15-43.82,0.51-55.83,0.4c-2.7-0.02-4.99-1.96-5.47-4.62l-7.03-38.75c-0.62-3.43,1.99-6.59,5.48-6.62l70-0.62
				C391.16,305.82,393.84,309.02,393.19,312.5z"/>
			<path id="XMLID_13_" class="st42" d="M385.55,360.98l-65.62,0.28c-0.81,0-1.47-0.65-1.48-1.46l-0.01-2.42
				c0-0.81,0.65-1.47,1.46-1.48l65.62-0.28c0.81,0,1.47,0.65,1.48,1.46l0.01,2.42C387.02,360.32,386.36,360.98,385.55,360.98z"/>
			<path id="XMLID_12_" class="st10" d="M358.2,332.95c-0.04-1.18-0.58-2.23-1.41-3.05c-0.64,1.05-1.89,1.79-3.36,1.85
				c-1.98,0.07-3.64-1.12-4-2.74c-1.68,0.92-2.78,2.54-2.71,4.36c0.1,2.73,2.75,4.85,5.92,4.74
				C355.81,337.99,358.3,335.68,358.2,332.95z"/>
		</g>
		<path class="st51" d="M355.09,237.29c0,0.45-1.52,0.83-3.39,0.83c-1.87,0.01-3.4-0.35-3.4-0.81c0-0.45,1.52-0.83,3.39-0.83
			C353.57,236.48,355.09,236.84,355.09,237.29z"/>
	</g>
	<g>
		<g id="XMLID_1_">
			<path id="XMLID_6_" class="st25" d="M400.6,125.02c0-14.48-11.74-26.22-26.22-26.22c-14.48,0-26.22,11.74-26.22,26.22
				c0,8.74,4.28,16.47,10.85,21.24v5.98c0,6.27,5.08,11.35,11.35,11.35h9.02c6.27,0,11.35-5.08,11.35-11.35v-6.74
				C396.75,140.69,400.6,133.3,400.6,125.02z"/>
			<path id="XMLID_5_" class="st25" d="M388.49,173.61c0,10.35-26.8,10.35-26.8,0v-14.03h26.8V173.61z"/>
			<g id="XMLID_2_">
				<rect id="XMLID_4_" x="361.69" y="161.75" class="st25" width="26.8" height="3.01"/>
				<path id="XMLID_3_" class="st25" d="M388.49,173.61v-3.34h-26.8v3.34c0,0.47,0.07,0.91,0.18,1.34h26.44
					C388.42,174.52,388.49,174.08,388.49,173.61z"/>
			</g>
		</g>
		<circle class="st25" cx="375" cy="126.31" r="17.57"/>
		<g>
			<g>
				<path class="st25" d="M372.9,92.1c-1.21,0-2.18-0.98-2.18-2.18v-6.55c0-1.21,0.98-2.18,2.18-2.18s2.18,0.98,2.18,2.18v6.55
					C375.08,91.12,374.11,92.1,372.9,92.1z"/>
			</g>
			<g>
				<path class="st25" d="M372.9,70.13c-1.21,0-2.18-0.98-2.18-2.18V52.52c0-1.21,0.98-2.18,2.18-2.18s2.18,0.98,2.18,2.18v15.42
					C375.08,69.15,374.11,70.13,372.9,70.13z"/>
			</g>
			<g>
				<path class="st25" d="M372.9,39.28c-1.21,0-2.18-0.98-2.18-2.18v-6.55c0-1.21,0.98-2.18,2.18-2.18s2.18,0.98,2.18,2.18v6.55
					C375.08,38.3,374.11,39.28,372.9,39.28z"/>
			</g>
		</g>
		<g>
			<g>
				<path class="st25" d="M348.38,104.72c-0.82,0.89-2.2,0.95-3.09,0.13l-4.83-4.43c-0.89-0.82-0.95-2.2-0.13-3.09
					c0.82-0.89,2.2-0.95,3.09-0.13l4.83,4.43C349.14,102.45,349.2,103.83,348.38,104.72z"/>
			</g>
			<g>
				<path class="st25" d="M332.19,89.86c-0.82,0.89-2.2,0.95-3.09,0.13l-11.36-10.43c-0.89-0.82-0.95-2.2-0.13-3.09
					c0.82-0.89,2.2-0.95,3.09-0.13l11.36,10.43C332.95,87.59,333.01,88.97,332.19,89.86z"/>
			</g>
			<g>
				<path class="st25" d="M309.48,69c-0.82,0.89-2.2,0.95-3.09,0.13l-4.83-4.43c-0.89-0.82-0.95-2.2-0.13-3.09
					c0.82-0.89,2.2-0.95,3.09-0.13l4.83,4.43C310.23,66.73,310.29,68.11,309.48,69z"/>
			</g>
		</g>
		<g>
			<g>
				<path class="st25" d="M341.09,131.32c0.1,1.2-0.79,2.26-1.99,2.36l-6.53,0.56c-1.2,0.1-2.26-0.79-2.36-1.99s0.79-2.26,1.99-2.36
					l6.53-0.56C339.93,129.22,340.99,130.11,341.09,131.32z"/>
			</g>
			<g>
				<path class="st25" d="M319.2,133.19c0.1,1.2-0.79,2.26-1.99,2.36l-15.37,1.31c-1.2,0.1-2.26-0.79-2.36-1.99
					c-0.1-1.2,0.79-2.26,1.99-2.36l15.37-1.31C318.04,131.09,319.1,131.99,319.2,133.19z"/>
			</g>
			<g>
				<path class="st25" d="M288.47,135.81c0.1,1.2-0.79,2.26-1.99,2.36l-6.53,0.56c-1.2,0.1-2.26-0.79-2.36-1.99
					c-0.1-1.2,0.79-2.26,1.99-2.36l6.53-0.56C287.31,133.72,288.36,134.61,288.47,135.81z"/>
			</g>
		</g>
		<g>
			<g>
				<path class="st25" d="M401.62,104.72c0.82,0.89,2.2,0.95,3.09,0.13l4.83-4.43c0.89-0.82,0.95-2.2,0.13-3.09
					c-0.82-0.89-2.2-0.95-3.09-0.13l-4.83,4.43C400.86,102.45,400.8,103.83,401.62,104.72z"/>
			</g>
			<g>
				<path class="st25" d="M417.81,89.86c0.82,0.89,2.2,0.95,3.09,0.13l11.36-10.43c0.89-0.82,0.95-2.2,0.13-3.09
					c-0.82-0.89-2.2-0.95-3.09-0.13l-11.36,10.43C417.05,87.59,416.99,88.97,417.81,89.86z"/>
			</g>
			<g>
				<path class="st25" d="M440.52,69c0.82,0.89,2.2,0.95,3.09,0.13l4.83-4.43c0.89-0.82,0.95-2.2,0.13-3.09
					c-0.82-0.89-2.2-0.95-3.09-0.13l-4.83,4.43C439.77,66.73,439.71,68.11,440.52,69z"/>
			</g>
		</g>
		<g>
			<g>
				<path class="st25" d="M408.91,131.32c-0.1,1.2,0.79,2.26,1.99,2.36l6.53,0.56c1.2,0.1,2.26-0.79,2.36-1.99s-0.79-2.26-1.99-2.36
					l-6.53-0.56C410.07,129.22,409.01,130.11,408.91,131.32z"/>
			</g>
			<g>
				<path class="st25" d="M430.8,133.19c-0.1,1.2,0.79,2.26,1.99,2.36l15.37,1.31c1.2,0.1,2.26-0.79,2.36-1.99
					c0.1-1.2-0.79-2.26-1.99-2.36l-15.37-1.31C431.96,131.09,430.9,131.99,430.8,133.19z"/>
			</g>
			<g>
				<path class="st25" d="M461.53,135.81c-0.1,1.2,0.79,2.26,1.99,2.36l6.53,0.56c1.2,0.1,2.26-0.79,2.36-1.99
					c0.1-1.2-0.79-2.26-1.99-2.36l-6.53-0.56C462.69,133.72,461.64,134.61,461.53,135.81z"/>
			</g>
		</g>
	</g>
</g>
</svg>
