<?xml version="1.0" encoding="utf-8"?>
<!-- Generator: Adobe Illustrator 24.0.1, SVG Export Plug-In . SVG Version: 6.00 Build 0)  -->
<svg version="1.1" xmlns="http://www.w3.org/2000/svg" xmlns:xlink="http://www.w3.org/1999/xlink" x="0px" y="0px"
	 viewBox="0 0 500 500" style="enable-background:new 0 0 500 500;" xml:space="preserve">
<style type="text/css">
	.st0{display:none;}
	.st1{display:inline;}
	.st2{fill:#407BFF;}
	.st3{opacity:0.9;fill:#FFFFFF;enable-background:new    ;}
	.st4{fill:#F5F5F5;}
	.st5{fill:#F27B3B;}
	.st6{fill:#EC5D10;}
	.st7{display:none;opacity:0.2;enable-background:new    ;}
	.st8{opacity:0.5;fill:#FFFFFF;enable-background:new    ;}
	.st9{opacity:0.2;fill:#FFFFFF;enable-background:new    ;}
	.st10{fill:#263238;}
	.st11{opacity:0.3;fill:#FFFFFF;enable-background:new    ;}
	.st12{opacity:0.6;fill:#FFFFFF;enable-background:new    ;}
	.st13{fill:#E4897B;}
	.st14{opacity:0.2;enable-background:new    ;}
	.st15{opacity:0.1;enable-background:new    ;}
	.st16{fill:#FFFFFF;}
	.st17{fill:#DE5753;}
	.st18{fill:none;stroke:#263238;stroke-width:0.7247;stroke-linecap:round;stroke-linejoin:round;stroke-miterlimit:10;}
	.st19{fill:none;stroke:#263238;stroke-width:0.5;stroke-linecap:round;stroke-linejoin:round;stroke-miterlimit:10;}
	.st20{opacity:0.4;enable-background:new    ;}
	.st21{opacity:0.85;}
	.st22{opacity:0.7;fill:#FFFFFF;enable-background:new    ;}
	.st23{opacity:0.4;fill:#FFFFFF;enable-background:new    ;}
	.st24{fill:none;stroke:#407BFF;stroke-width:0.75;stroke-linecap:round;stroke-linejoin:round;}
	.st25{fill:none;stroke:#407BFF;stroke-width:0.75;stroke-linecap:round;stroke-linejoin:round;stroke-dasharray:6.0301,6.0301;}
	.st26{opacity:0.1;fill:#FFFFFF;enable-background:new    ;}
</style>
<g id="Background_Complete">
</g>
<g id="Backgorund_Simple" class="st0">
	<g class="st1">
		<path class="st2" d="M308.64,92.57c7.99-2.8,16.5-4.04,24.68-3.52c41.56,2.63,67.72,39.05,75.36,77.14
			c11.09,55.24-17.03,111.76-56.49,149.1c-1.28,1.21-2.59,2.41-3.91,3.59c-41.07,36.56-96.07,55.27-150.61,56.82
			c-34.3,0.98-74.98-10.61-97.63-37.83c-23.67-28.45-18.42-92.74,26.65-95.74c18.35-1.22,35.48,5.44,53.15,9.1
			c24.52,5.08,51.2,0.15,71.31-15.09c39.96-30.29,3.99-85.67,28.46-122.02C286.4,104.06,296.96,96.66,308.64,92.57z"/>
		<path class="st3" d="M308.64,92.57c7.99-2.8,16.5-4.04,24.68-3.52c41.56,2.63,67.72,39.05,75.36,77.14
			c11.09,55.24-17.03,111.76-56.49,149.1c-1.28,1.21-2.59,2.41-3.91,3.59c-41.07,36.56-96.07,55.27-150.61,56.82
			c-34.3,0.98-74.98-10.61-97.63-37.83c-23.67-28.45-18.42-92.74,26.65-95.74c18.35-1.22,35.48,5.44,53.15,9.1
			c24.52,5.08,51.2,0.15,71.31-15.09c39.96-30.29,3.99-85.67,28.46-122.02C286.4,104.06,296.96,96.66,308.64,92.57z"/>
	</g>
</g>
<g id="Shadow_1_">
	<ellipse id="_x3C_Path_x3E__359_" class="st4" cx="250" cy="416.24" rx="193.89" ry="11.32"/>
</g>
<g id="Plant">
	<g>
		<g>
			<path class="st2" d="M410.45,384.72c0.15-1.02,3.65-25.17-3.36-33.51c-1.55-1.85-3.51-2.81-5.82-2.87
				c-14.15-0.33-16.09,11.04-16.11,11.15l1.67,0.26c0.06-0.41,1.74-10.03,14.4-9.72c1.83,0.04,3.33,0.79,4.57,2.27
				c6.53,7.76,3.02,31.93,2.98,32.17L410.45,384.72z"/>
		</g>
		<g>
			<path class="st2" d="M411.3,383.62l1.69-0.05c-0.01-0.22-0.56-22.25,10.29-26.8c10.64-4.46,15.42,4.71,15.62,5.1l1.51-0.76
				c-0.06-0.11-5.67-10.98-17.78-5.9C410.71,360.2,411.27,382.66,411.3,383.62z"/>
		</g>
		<g>
			<path class="st2" d="M411.25,385.35c0-0.35,0.1-35.19,6.89-45.38c6.52-9.78,17.04-5.18,17.49-4.98l0.7-1.54
				c-0.12-0.06-12.26-5.41-19.59,5.58c-7.07,10.61-7.18,44.86-7.18,46.32L411.25,385.35z"/>
		</g>
		<path class="st5" d="M399.24,349.18c0,0,6.18,2.28,4.34,7.66s-21.38,14.23-21.38,14.23s-8.18-7.5-0.67-19.7
			C389.05,339.16,399.07,345.33,399.24,349.18z"/>
		<path class="st6" d="M418.45,338.13c0,0-4.39-0.47-4.03-3.14c0.35-2.67,17.05-9.55,26.91,1.57c0,0-6.31,10.84-15.43,10.98
			C416.78,347.68,418.45,338.13,418.45,338.13z"/>
		<path class="st6" d="M422.96,355.98c0,0-3.03-2.44,0.24-3.64c3.27-1.19,19.3-0.85,19.47,15.03c0,0-18.67,3.1-20.98-2.95
			S422.96,355.98,422.96,355.98z"/>
		<path class="st7" d="M399.24,349.18c0,0,6.18,2.28,4.34,7.66s-21.38,14.23-21.38,14.23s-8.18-7.5-0.67-19.7
			C389.05,339.16,399.07,345.33,399.24,349.18z"/>
		<path class="st7" d="M418.45,338.13c0,0-4.39-0.47-4.03-3.14c0.35-2.67,17.05-9.55,26.91,1.57c0,0-6.31,10.84-15.43,10.98
			C416.78,347.68,418.45,338.13,418.45,338.13z"/>
		<path class="st7" d="M422.96,355.98c0,0-3.03-2.44,0.24-3.64c3.27-1.19,19.3-0.85,19.47,15.03c0,0-18.67,3.1-20.98-2.95
			S422.96,355.98,422.96,355.98z"/>
		<polygon class="st5" points="395.92,417.07 424.9,417.07 428.02,385.35 392.8,385.35 		"/>
		<polygon class="st8" points="395.92,417.07 424.9,417.07 428.02,385.35 392.8,385.35 		"/>
		
			<rect x="391.25" y="381.85" transform="matrix(-1 -1.224647e-16 1.224647e-16 -1 820.8201 770.6912)" class="st6" width="38.32" height="7"/>
		
			<rect x="391.25" y="381.85" transform="matrix(-1 -1.224647e-16 1.224647e-16 -1 820.8201 770.6912)" class="st9" width="38.32" height="7"/>
	</g>
</g>
<g id="Chair">
	<g>
		<path class="st10" d="M363.12,394.33l-28.81-2.83v-40.49h-11.42v40.48l-28.93,2.84c-2.87,0.28-5.06,2.7-5.06,5.58v4.33h38.58h2.12
			h38.58v-4.33C368.18,397.03,366,394.61,363.12,394.33z"/>
		<path class="st9" d="M363.12,394.33l-28.81-2.83v-40.49h-11.42v40.48l-28.93,2.84c-2.87,0.28-5.06,2.7-5.06,5.58v4.33h38.58h2.12
			h38.58v-4.33C368.18,397.03,366,394.61,363.12,394.33z"/>
		<circle class="st10" cx="291.95" cy="409.61" r="7.47"/>
		<circle class="st10" cx="365.14" cy="409.61" r="7.47"/>
		<path class="st10" d="M332.14,359.71h-7.09c-2.28,0-4.13-1.85-4.13-4.13v-31.93h15.35v31.93
			C336.28,357.86,334.43,359.71,332.14,359.71z"/>
		<path class="st11" d="M332.14,359.71h-7.09c-2.28,0-4.13-1.85-4.13-4.13v-31.93h15.35v31.93
			C336.28,357.86,334.43,359.71,332.14,359.71z"/>
		<path class="st10" d="M355.9,260.35c0,0,2.18,54-12.86,63.29h17.16c0,0,13.3-18.4,9.54-63.29H355.9z"/>
		<path class="st11" d="M355.9,260.35c0,0,2.18,54-12.86,63.29h17.16c0,0,13.3-18.4,9.54-63.29H355.9z"/>
		<path class="st10" d="M294.13,316.09h66.92c2.76,0,5,2.24,5,5v6.69h-76.92v-6.69C289.13,318.33,291.37,316.09,294.13,316.09z"/>
		<g>
			<path class="st10" d="M287.94,321.94h79.31c1.11,0,2.01,0.9,2.01,2.01v1.82c0,1.11-0.9,2.01-2.01,2.01h-79.31
				c-1.11,0-2.01-0.9-2.01-2.01v-1.82C285.93,322.84,286.83,321.94,287.94,321.94z"/>
			<path class="st12" d="M287.94,321.94h79.31c1.11,0,2.01,0.9,2.01,2.01v1.82c0,1.11-0.9,2.01-2.01,2.01h-79.31
				c-1.11,0-2.01-0.9-2.01-2.01v-1.82C285.93,322.84,286.83,321.94,287.94,321.94z"/>
		</g>
		<path class="st10" d="M373.95,271.32h-27.49c-8.05,0-14.58-6.53-14.58-14.58v-10.75c0-8.05,6.53-14.58,14.58-14.58h27.49
			c8.05,0,14.58,6.53,14.58,14.58v10.75C388.54,264.79,382.01,271.32,373.95,271.32z"/>
	</g>
</g>
<g id="Character">
	<g>
		<path class="st13" d="M263.05,187.28l-5.49-14.47c0,0,2.35-2.18,0.74-4.39c-1.61-2.21-11.74-8.43-13.59-7.33
			c-1.85,1.09-5.94,5.21-3.73,7.5c2.22,2.29,12.03,6.1,12.03,6.1l4.85,18.99L263.05,187.28z"/>
		<g>
			<path class="st6" d="M301.38,214.79c0,0-24.97-5.13-27.68-6.36c-2.71-1.23-12.76-30.66-12.76-30.66l-7.7,3.6
				c0,0,6.2,29.54,12.54,36.57c6.34,7.02,33.39,12.97,33.39,12.97L301.38,214.79z"/>
			<path class="st7" d="M299.17,230.9c0,0-0.16-0.03-0.46-0.11c-1.37-0.31-5.63-1.31-10.7-2.8c-8.23-2.39-18.61-6.05-22.23-10.06
				c-6.33-7.03-12.54-36.57-12.54-36.57l7.7-3.6c0,0,10.05,29.44,12.77,30.66c2.71,1.22,27.67,6.35,27.67,6.35L299.17,230.9z"/>
			<polygon class="st2" points="261.07,177.19 262.66,180.26 252.76,183.67 253.14,179.92 			"/>
		</g>
		<path class="st14" d="M299.36,230.49c-1.39-0.2-5.72-0.87-10.89-1.96c2.95-5.09,11.59-7.71,11.59-7.71L299.36,230.49z"/>
		<path class="st10" d="M336.58,194.41c0,0,1.47,13.83-3.66,17.23c-5.12,3.4-30.33-0.58-33.19-6.15c-2.86-5.56,7.9-20.67,7.9-20.67
			L336.58,194.41z"/>
		<polygon class="st13" points="234.59,376.4 241.17,377.98 244.5,368.9 247.52,360.64 240.03,357.45 237.15,367.47 		"/>
		<polygon class="st14" points="237.15,367.47 244.5,368.9 247.52,360.64 240.03,357.45 		"/>
		<g>
			<path class="st2" d="M237.81,362.68l9.12,3.39c0,0,24.33-60.83,29.33-61.04s55.91,23.19,68.67,10.21
				c12.76-12.97-5.69-44.24-5.69-44.24s-30.69-4.38-33,2.55c-0.45,1.34-0.94,3.97-1.3,6.22c-0.35,2.12-0.59,3.9-0.59,3.9
				s-0.01,0-0.02-0.01c-0.95-0.24-31.76-8.19-43.9,0.01C248.1,292.01,237.81,362.68,237.81,362.68z"/>
			<path class="st12" d="M237.81,362.68l9.12,3.39c0,0,24.33-60.83,29.33-61.04s55.91,23.19,68.67,10.21
				c12.76-12.97-5.69-44.24-5.69-44.24s-30.69-4.38-33,2.55c-0.45,1.34-0.94,3.97-1.3,6.22c-0.35,2.12-0.59,3.9-0.59,3.9
				s-0.01,0-0.02-0.01c-0.95-0.24-31.76-8.19-43.9,0.01C248.1,292.01,237.81,362.68,237.81,362.68z"/>
		</g>
		<polygon class="st13" points="290.27,402.34 296.82,400.67 295.56,391.27 294.39,382.64 286.29,383.37 288.39,393.42 		"/>
		<polygon class="st14" points="288.44,393.62 295.6,391.45 294.41,382.73 286.3,383.42 		"/>
		<polygon class="st6" points="250.7,362.69 237.41,358.18 236.85,363.62 246.92,367.18 		"/>
		<g>
			<path class="st2" d="M322.89,318.36c0,0-2.08,0.05-34.27-1.45c0,0,4.81,40.25,7.44,70.37l-9.63,1.64c0,0-23-64.51-22.75-74.76
				s12-13.25,12-13.25S298.61,314.16,322.89,318.36z"/>
			<path class="st12" d="M322.89,318.36c0,0-2.08,0.05-34.27-1.45c0,0,4.81,40.25,7.44,70.37l-9.63,1.64c0,0-23-64.51-22.75-74.76
				s12-13.25,12-13.25S298.61,314.16,322.89,318.36z"/>
			<path class="st15" d="M322.89,318.36c0,0-2.08,0.05-34.27-1.45c0,0,4.81,40.25,7.44,70.37l-9.63,1.64c0,0-23-64.51-22.75-74.76
				s12-13.25,12-13.25S298.61,314.16,322.89,318.36z"/>
		</g>
		<polygon class="st6" points="297.46,384.36 284.23,385.87 286.79,391.05 297.5,389.68 		"/>
		<path class="st15" d="M304.35,283.67l17.95,3.74c0,0-9.92-5.48-17.36-7.64C304.59,281.89,304.35,283.67,304.35,283.67z"/>
		<g>
			<g>
				<polygon class="st10" points="338.5,266.23 339.24,271 306.24,273.55 305.36,267.9 				"/>
				<polygon class="st14" points="338.5,266.23 339.24,271 306.24,273.55 305.36,267.9 				"/>
			</g>
			
				<rect x="327.66" y="265.81" transform="matrix(-0.9948 0.1023 -0.1023 -0.9948 682.8523 504.955)" class="st2" width="1.64" height="8.35"/>
			
				<rect x="313.25" y="267.66" transform="matrix(-0.9979 0.0641 -0.0641 -0.9979 650.441 519.9342)" class="st16" width="7.24" height="5.49"/>
			
				<rect x="307.4" y="266.7" transform="matrix(-0.9947 0.1023 -0.1023 -0.9947 642.5431 508.7874)" class="st2" width="1.64" height="8.35"/>
			
				<rect x="327.66" y="265.81" transform="matrix(-0.9948 0.1023 -0.1023 -0.9948 682.8523 504.955)" class="st12" width="1.64" height="8.35"/>
			
				<rect x="307.4" y="266.7" transform="matrix(-0.9947 0.1023 -0.1023 -0.9947 642.5431 508.7874)" class="st12" width="1.64" height="8.35"/>
		</g>
		<path class="st2" d="M300.78,214.34c0,0,8.42,2.64,19.01,2.1c10.59-0.54,23.25,4.6,23.25,4.6l-4.55,45.19l-33.13,1.67
			C305.36,267.9,294.23,230.16,300.78,214.34z"/>
		<path class="st10" d="M306.11,188.81c0,0,1.86-21.95,20.21-13.97c23.03,10.01,4.72,36.74-6.53,31.25S306.11,188.81,306.11,188.81z
			"/>
		<path class="st14" d="M311.25,217.66l0.53,12.4l4.11-5.83c0,0-1.47,13.72-0.61,21.18c0,0,0.79-13.39,2.65-21.18l4.37,5.83
			l6.27-12.32C328.58,217.74,318.42,214.09,311.25,217.66z"/>
		<path class="st13" d="M316.93,219.97l9.49-2.68c-5.85-4.02-2.9-13.02-2.9-13.02l-9.4,3.3c0.5,1.56,0.82,2.88,1.01,4.02
			c0.98,5.86-1.67,6.33-1.67,6.33L316.93,219.97z"/>
		<path class="st14" d="M314.12,207.57c0.5,1.56,0.82,2.88,1.01,4.02c4.5-1.8,8.39-7.32,8.39-7.32L314.12,207.57z"/>
		<g>
			<path class="st13" d="M320.26,179.45c-8.32-1.84-11.99,2.02-14.5,10.46c-3.13,10.55-2.44,18.69,8.47,18.7
				C329.05,208.64,334.08,182.51,320.26,179.45z"/>
			<path class="st17" d="M311.24,190.64c0,0-1.63,1.92-3.19,2.92c0,0,0.46,1.29,1.99,1.43L311.24,190.64z"/>
			<g>
				<path class="st10" d="M316.49,191.08c-0.17,0.68,0.06,1.32,0.52,1.43c0.45,0.11,0.96-0.35,1.12-1.03
					c0.17-0.68-0.06-1.32-0.52-1.43C317.16,189.94,316.66,190.4,316.49,191.08z"/>
				<path class="st10" d="M317.79,190.13l-1.34-0.94C316.46,189.19,316.89,190.62,317.79,190.13z"/>
			</g>
			<g>
				<path class="st10" d="M308.07,188.86c-0.17,0.68,0.06,1.32,0.52,1.43c0.45,0.11,0.96-0.35,1.12-1.03
					c0.17-0.68-0.06-1.32-0.52-1.43C308.74,187.72,308.24,188.18,308.07,188.86z"/>
				<path class="st10" d="M309.37,187.91l-1.34-0.94C308.04,186.97,308.47,188.39,309.37,187.91z"/>
			</g>
			<path class="st18" d="M317.84,185.36c0,0,2.41,0.21,3.33,2.06"/>
			<path class="st18" d="M311.87,183.67c0,0-1.35-0.87-3.47-0.05"/>
			<path class="st10" d="M326.25,195.49c0,0-2.38-7.7-0.62-12.85c0,0-15-10.39-19.52,6.17c0,0,1.68-15.22,16.06-12.39
				c14.36,2.83,9.69,23.75,0.92,28.35C323.08,204.78,327.71,200.3,326.25,195.49z"/>
			<path class="st13" d="M324.5,196.95c0.35-1.33,2.24-3.29,4.67-2.47c2.52,0.85,2.57,6.42-4.12,6.27
				C324.08,200.73,323.76,199.72,324.5,196.95z"/>
			<g>
				<path class="st10" d="M308.55,198.14c0.29,1.1,0.43,3.09,0.43,3.09c0.18,0.02,0.37,0.04,0.55,0.05
					c2.48,0.21,3.71-0.51,4.31-1.38c0.33-0.47,0.46-1,0.52-1.43c0.07-0.5,0-0.87,0-0.87c-1.38,0.68-3.72,0.66-4.96,0.59
					C308.88,198.18,308.55,198.14,308.55,198.14z"/>
				<path class="st16" d="M309.4,198.2l0.15,0.91c2.34,0.19,4.02,0.02,4.81-0.63c0.07-0.5,0-0.87,0-0.87
					C312.98,198.28,310.65,198.26,309.4,198.2z"/>
				<path class="st17" d="M309.53,201.29c2.48,0.21,3.71-0.51,4.31-1.38c-0.85-0.04-1.88,0.01-2.81,0.31
					C310.33,200.45,309.86,200.86,309.53,201.29z"/>
			</g>
			<path class="st10" d="M320.29,180.12c0,0,0.32,14.44,8.98,16.17c8.66,1.73-0.81-18.55-0.81-18.55s-12.9-8.42-21.49-2.49
				c-8.6,5.94-0.87,13.57-0.87,13.57S307.92,178.09,320.29,180.12z"/>
			<path class="st19" d="M320.59,179.16c0,0-3.09,9.13,3.01,13.92"/>
		</g>
		<g>
			<path class="st2" d="M331.8,199.25c-1.1,2.94-3.93,4.59-6.32,3.69c-2.39-0.9-3.43-4-2.33-6.94c1.1-2.94,3.93-4.59,6.32-3.69
				C331.86,193.21,332.9,196.32,331.8,199.25z"/>
			<path class="st20" d="M331.8,199.25c-1.1,2.94-3.93,4.59-6.32,3.69c-2.39-0.9-3.43-4-2.33-6.94c1.1-2.94,3.93-4.59,6.32-3.69
				C331.86,193.21,332.9,196.32,331.8,199.25z"/>
			<path class="st2" d="M329.04,194.44c0,0,3.59-16.07-4.46-20.28c0,0,1.68,0.23,2.72,0.53c1.04,0.3,7.47,6.82,4.22,21.26
				L329.04,194.44z"/>
			<path class="st14" d="M329.04,194.44c0,0,3.59-16.07-4.46-20.28c0,0,1.68,0.23,2.72,0.53c1.04,0.3,7.47,6.82,4.22,21.26
				L329.04,194.44z"/>
			<g>
				<g>
					<path class="st2" d="M313.95,203.64c-0.2-0.03-0.4-0.06-0.6-0.09l0.16-0.99c7.25,1.18,12.64-2.65,12.69-2.69l0.59,0.81
						C326.57,200.84,321.32,204.61,313.95,203.64z"/>
				</g>
				<g class="st14">
					<path d="M313.95,203.64c-0.2-0.03-0.4-0.06-0.6-0.09l0.16-0.99c7.25,1.18,12.64-2.65,12.69-2.69l0.59,0.81
						C326.57,200.84,321.32,204.61,313.95,203.64z"/>
				</g>
			</g>
			<path class="st2" d="M331.46,198.85c-0.73,1.94-2.6,3.03-4.18,2.44c-1.58-0.59-2.27-2.65-1.54-4.59c0.73-1.94,2.6-3.03,4.18-2.44
				C331.5,194.86,332.19,196.91,331.46,198.85z"/>
			<g>
				<path class="st2" d="M313.06,203.97l-0.8-0.11c-0.6-0.08-1.02-0.62-0.94-1.22l0,0c0.08-0.6,0.62-1.02,1.22-0.94l0.8,0.11
					c0.6,0.08,1.02,0.62,0.94,1.22l0,0C314.2,203.62,313.65,204.04,313.06,203.97z"/>
				<path class="st20" d="M313.06,203.97l-0.8-0.11c-0.6-0.08-1.02-0.62-0.94-1.22l0,0c0.08-0.6,0.62-1.02,1.22-0.94l0.8,0.11
					c0.6,0.08,1.02,0.62,0.94,1.22l0,0C314.2,203.62,313.65,204.04,313.06,203.97z"/>
			</g>
		</g>
		<polygon class="st2" points="323.87,213.85 317.93,219.68 320.31,226.84 328.58,217.74 		"/>
		<polygon class="st2" points="315.28,215.07 316.24,219.56 313.17,225.91 311.25,217.66 		"/>
		<path class="st13" d="M322.6,218.91l3.45-12.63c0,0-1.67-3.15-1.31-3.8c0.36-0.66,2.16-9.14,3.44-10.06
			c1.28-0.92,6.54,0.65,7.08,1.51c0.53,0.86-5.04,12.35-5.04,12.35l-2.03,13.68L322.6,218.91z"/>
		<g class="st21">
			<path class="st6" d="M343.04,221.03c9.49,9.72-9.54,31.74-20.44,30.8c-10.9-0.94,0.27-40.86,0.27-40.86l6.98,1.15
				c0,0-2.45,17.28-1.68,18.63C328.95,232.11,339.85,217.77,343.04,221.03z"/>
			<path class="st7" d="M343.04,221.03c9.49,9.72-9.54,31.74-20.44,30.8c-10.9-0.94,0.27-40.86,0.27-40.86l6.98,1.15
				c0,0-2.45,17.28-1.68,18.63C328.95,232.11,339.85,217.77,343.04,221.03z"/>
			<polygon class="st2" points="322.3,209.69 321.27,212.99 331,213.85 331,210.97 			"/>
		</g>
		<g>
			<path class="st12" d="M307.56,244.82h-3.94c-0.44,0-0.79-0.35-0.79-0.79v-7.44c0-0.44,0.35-0.79,0.79-0.79h3.94
				c0.44,0,0.79,0.35,0.79,0.79v7.44C308.35,244.47,307.99,244.82,307.56,244.82z"/>
			<rect x="303.15" y="236.4" class="st14" width="4.48" height="6.13"/>
			<rect x="305" y="233.63" class="st10" width="0.99" height="3.61"/>
		</g>
		<path class="st2" d="M223.71,389.17c1-0.46,2.08-0.73,3.17-0.81l0,0c0,0,3.8-2.24,7.56-10.92l4.23-0.02
			c1.47,0.02,2.76,0.95,3.25,2.33c0.07,0.19,0.11,0.39,0.12,0.59c-0.04,1.02-0.15,2.04-0.33,3.05c-0.38,3.17-2.47,9.96-2.47,9.96
			l-0.72-0.18l1.3-6.32c0.43-2.15-1.82-0.07-2.87,2.09c-1.05,2.16-2.65,4.34-7.33,3.27C224.19,390.93,222,390.15,223.71,389.17z"/>
		<path class="st13" d="M235.21,375.17c0,0-5.29,11.06-8.33,13.2c0,0,4.08,2.43,8.33-2.98c5.49-7,6.84-5.05,6.84-5.05
			s-0.23-2.4-0.66-3.57C240.56,374.5,235.21,375.17,235.21,375.17z"/>
		<path class="st2" d="M281.93,415.52c0.86-0.68,1.84-1.2,2.89-1.54l0,0c0,0,3.16-3.07,4.76-12.4l4.11-1.03
			c1.43-0.33,2.91,0.26,3.71,1.49c0.11,0.17,0.2,0.35,0.26,0.54c0.2,1,0.34,2.02,0.41,3.04c0.38,3.17-0.04,10.26-0.04,10.26
			l-0.74-0.01l-0.23-6.45c-0.09-2.19-1.79,0.36-2.29,2.71c-0.5,2.35-1.54,4.85-6.34,4.92C282.82,417.12,280.5,416.88,281.93,415.52z
			"/>
		<path class="st13" d="M289.78,399.19c0,0-2.51,12-4.96,14.79c0,0,4.54,1.4,7.38-4.87c3.68-8.11,5.45-6.52,5.45-6.52
			s-0.79-2.27-1.49-3.31C294.82,397.28,289.78,399.19,289.78,399.19z"/>
	</g>
</g>
<g id="Speech_bubble">
	<g>
		<path class="st6" d="M382.76,182.22h-34.92c-2.8,0-5.07-2.27-5.07-5.07v-14.94c0-2.8,2.27-5.07,5.07-5.07h34.92
			c2.8,0,5.07,2.27,5.07,5.07v14.94C387.83,179.95,385.56,182.22,382.76,182.22z"/>
		<polygon class="st6" points="354.85,179.36 344.33,193.66 361.3,180.32 		"/>
		<g>
			<path class="st16" d="M355.24,169.68c0,0.81-0.66,1.48-1.48,1.48c-0.81,0-1.48-0.66-1.48-1.48c0-0.81,0.66-1.48,1.48-1.48
				C354.58,168.21,355.24,168.87,355.24,169.68z"/>
			<path class="st16" d="M362.93,169.68c0,0.81-0.66,1.48-1.48,1.48s-1.48-0.66-1.48-1.48c0-0.81,0.66-1.48,1.48-1.48
				S362.93,168.87,362.93,169.68z"/>
			<path class="st16" d="M370.62,169.68c0,0.81-0.66,1.48-1.48,1.48c-0.81,0-1.48-0.66-1.48-1.48c0-0.81,0.66-1.48,1.48-1.48
				C369.96,168.21,370.62,168.87,370.62,169.68z"/>
			<path class="st16" d="M378.31,169.68c0,0.81-0.66,1.48-1.48,1.48c-0.81,0-1.48-0.66-1.48-1.48c0-0.81,0.66-1.48,1.48-1.48
				C377.65,168.21,378.31,168.87,378.31,169.68z"/>
		</g>
	</g>
</g>
<g id="Bird">
	<g>
		<g>
			<path class="st6" d="M242.43,162.5l-24.9-13.41c-0.67-0.36-0.93-1.2-0.56-1.88l7.94-14.74c0.36-0.67,1.2-0.93,1.88-0.56
				l24.9,13.41c0.67,0.36,0.93,1.2,0.56,1.88l-7.94,14.74C243.94,162.62,243.1,162.87,242.43,162.5z"/>
			<path class="st22" d="M242.43,162.5l-24.9-13.41c-0.67-0.36-0.93-1.2-0.56-1.88l7.94-14.74c0.36-0.67,1.2-0.93,1.88-0.56
				l24.9,13.41c0.67,0.36,0.93,1.2,0.56,1.88l-7.94,14.74C243.94,162.62,243.1,162.87,242.43,162.5z"/>
			<path class="st14" d="M224.25,133.69l7.79,14.55c0.61,1.13,1.84,1.79,3.11,1.66l16.21-1.6l-16.51,2.43
				c-1.48,0.22-2.93-0.56-3.56-1.92L224.25,133.69z"/>
		</g>
		<g>
			<path class="st2" d="M205.34,130.98c0.26-5.56,4.38-16.77,9.39-20.2c5.01-3.43,1.71,1.32,1.71,1.32s4.75-4.62,7.25-4.48
				c2.51,0.13,0,3.03,0,3.03s5.14-3.17,7.52-3.04c2.37,0.13,0,2.9,0,2.9s4.22-3.03,5.93-1.58c1.71,1.45-21.89,17.01-24.53,23.34
				C209.99,138.6,205.07,136.61,205.34,130.98z"/>
			<path class="st23" d="M205.34,130.98c0.26-5.56,4.38-16.77,9.39-20.2c5.01-3.43,1.71,1.32,1.71,1.32s4.75-4.62,7.25-4.48
				c2.51,0.13,0,3.03,0,3.03s5.14-3.17,7.52-3.04c2.37,0.13,0,2.9,0,2.9s4.22-3.03,5.93-1.58c1.71,1.45-21.89,17.01-24.53,23.34
				C209.99,138.6,205.07,136.61,205.34,130.98z"/>
		</g>
		<g>
			<path class="st2" d="M225.62,130.16l3.15,2.02c0.23,0.15,0.11,0.5-0.16,0.48l-3.31-0.26l0.28,2.54c0.03,0.28-0.31,0.43-0.5,0.22
				l-1.91-2.16L225.62,130.16z"/>
			<path class="st11" d="M225.62,130.16l3.15,2.02c0.23,0.15,0.11,0.5-0.16,0.48l-3.31-0.26l0.28,2.54c0.03,0.28-0.31,0.43-0.5,0.22
				l-1.91-2.16L225.62,130.16z"/>
		</g>
		<g>
			<path class="st2" d="M181.37,117.64c0,0,4.35-3.03,10.95-1.06c0,0,1.9,8.7,7.08,11.6c2.85,1.59,9.82,1.46,15.34-0.33
				c6.55-2.12,9.76-2.12,10.95,0.33c1.12,2.32-0.13,5.01-5.14,6.2s-8.97,9.89-18.07,10.02c-9.1,0.13-13.89-8.99-11.6-17.01
				C190.87,127.4,188.1,121.42,181.37,117.64z"/>
			<path class="st8" d="M181.37,117.64c0,0,4.35-3.03,10.95-1.06c0,0,1.9,8.7,7.08,11.6c2.85,1.59,9.82,1.46,15.34-0.33
				c6.55-2.12,9.76-2.12,10.95,0.33c1.12,2.32-0.13,5.01-5.14,6.2s-8.97,9.89-18.07,10.02c-9.1,0.13-13.89-8.99-11.6-17.01
				C190.87,127.4,188.1,121.42,181.37,117.64z"/>
		</g>
		<path class="st10" d="M223.18,129.84c0,0.25-0.2,0.44-0.44,0.44c-0.25,0-0.45-0.2-0.45-0.44c0-0.25,0.2-0.45,0.45-0.45
			C222.98,129.39,223.18,129.59,223.18,129.84z"/>
		<path class="st2" d="M200.36,137.16c-5.37,1.47-17.31,1.01-22.12-2.7c-4.81-3.71,0.73-2.04,0.73-2.04s-5.86-3.09-6.5-5.51
			c-0.65-2.42,2.88-0.94,2.88-0.94s-4.6-3.91-5.21-6.21c-0.6-2.3,2.76-0.9,2.76-0.9s-4.19-3.08-3.34-5.16
			c0.85-2.08,22.94,15.57,29.77,16.13C206.18,130.39,205.8,135.68,200.36,137.16z"/>
		<path class="st23" d="M200.36,137.16c-5.37,1.47-17.31,1.01-22.12-2.7c-4.81-3.71,0.73-2.04,0.73-2.04s-5.86-3.09-6.5-5.51
			c-0.65-2.42,2.88-0.94,2.88-0.94s-4.6-3.91-5.21-6.21c-0.6-2.3,2.76-0.9,2.76-0.9s-4.19-3.08-3.34-5.16
			c0.85-2.08,22.94,15.57,29.77,16.13C206.18,130.39,205.8,135.68,200.36,137.16z"/>
		<g>
			<g>
				<path class="st24" d="M165.16,112.46c-0.94-0.33-1.89-0.65-2.85-0.94"/>
				<path class="st25" d="M156.47,110.03c-3.5-0.73-7.07-1.21-10.61-1.46c-9.72-0.68-24.97-1.64-30.92,8.05
					c-5.43,8.83,3.91,23.89,7.22,32.09c4.06,10.04,8.89,22.45,4.09,33.08c-9.86,21.84-52.05,10.5-66.28-9.62"/>
				<path class="st24" d="M58.36,169.64c-0.5-0.88-0.95-1.78-1.33-2.69"/>
			</g>
		</g>
	</g>
</g>
<g id="Desk">
	<g>
		<g>
			<rect x="141.85" y="249.04" class="st16" width="37.96" height="7.78"/>
			<rect x="141.85" y="249.04" class="st15" width="37.96" height="7.78"/>
			<rect x="141.85" y="249.04" class="st15" width="15.99" height="7.78"/>
			<polygon class="st15" points="141.85,250.16 175.64,250.16 141.85,251.12 			"/>
			<polygon class="st15" points="179.81,251.51 150.52,252.24 179.81,252.24 			"/>
			<polygon class="st15" points="143.4,253.69 157.84,253.1 179.07,253.69 157.84,254.02 			"/>
			<polygon class="st15" points="141.85,255.34 166.87,255.34 141.85,255.93 			"/>
			<polygon class="st15" points="179.75,255.93 163.05,256.24 179.81,256.24 			"/>
		</g>
		<g>
			<rect x="136.57" y="241.26" class="st16" width="37.96" height="7.78"/>
			<rect x="136.57" y="241.26" class="st15" width="37.96" height="7.78"/>
			<rect x="136.57" y="241.26" class="st15" width="15.99" height="7.78"/>
			<polygon class="st15" points="136.57,242.38 170.36,242.38 136.57,243.33 			"/>
			<polygon class="st15" points="174.53,243.73 145.24,244.46 174.53,244.46 			"/>
			<polygon class="st15" points="138.11,245.91 152.55,245.31 173.78,245.91 152.55,246.24 			"/>
			<polygon class="st15" points="136.57,247.55 161.59,247.55 136.57,248.15 			"/>
			<polygon class="st15" points="174.47,248.15 157.76,248.46 174.53,248.46 			"/>
		</g>
		<g>
			<rect x="140.9" y="233.47" class="st16" width="37.96" height="7.78"/>
			<rect x="140.9" y="233.47" class="st15" width="37.96" height="7.78"/>
			<rect x="140.9" y="233.47" class="st15" width="15.99" height="7.78"/>
			<polygon class="st15" points="140.9,234.59 174.69,234.59 140.9,235.55 			"/>
			<polygon class="st15" points="178.86,235.94 149.57,236.67 178.86,236.67 			"/>
			<polygon class="st15" points="142.45,238.12 156.89,237.53 178.12,238.12 156.89,238.45 			"/>
			<polygon class="st15" points="140.9,239.77 165.92,239.77 140.9,240.36 			"/>
			<polygon class="st15" points="178.81,240.36 162.1,240.67 178.86,240.67 			"/>
		</g>
		<g>
			<polygon class="st10" points="204.15,256.66 205.13,252.93 245.68,252.93 264.36,254.8 265.07,256.66 			"/>
			<polygon class="st20" points="245.68,252.93 245.68,256.66 204.15,256.66 205.13,252.93 			"/>
		</g>
		<g>
			<path class="st10" d="M237.54,235.08c0.18,1.97-1.26,3.57-3.22,3.57H172.2c-1.97,0-3.71-1.6-3.89-3.57l-3.69-39.77
				c-0.04-0.41-0.01-0.8,0.08-1.16c0.35-1.4,1.58-2.41,3.14-2.41h62.12c1.97,0,3.71,1.6,3.89,3.57L237.54,235.08z"/>
			<path class="st20" d="M234.1,238.65h-61.9c-1.97,0-3.71-1.6-3.89-3.57l-3.69-39.77c-0.04-0.41-0.01-0.8,0.08-1.16h61.9
				c1.96,0,3.7,1.6,3.89,3.57l3.69,39.77C234.22,237.9,234.19,238.29,234.1,238.65z"/>
			<polygon class="st10" points="191.42,214.26 204.27,214.26 200.85,251.05 221.17,254.1 221.17,256.66 178.37,256.66 
				178.37,254.1 187.14,251.05 			"/>
			<polygon class="st26" points="204.27,214.26 194.75,256.08 187.14,255.85 191.42,214.26 			"/>
		</g>
		<g>
			<g>
				<polygon class="st10" points="204.21,417.07 198.09,417.07 187.08,263.83 195.21,263.83 				"/>
				<polygon class="st23" points="204.22,417.07 198.09,417.07 187.62,271.44 187.08,264.07 195.21,264.07 195.65,271.44 				"/>
				<polygon class="st14" points="195.65,271.07 187.62,271.07 187.08,264.07 195.21,264.07 				"/>
			</g>
			<g>
				<polygon class="st10" points="249.17,417.07 243.05,417.07 242.05,263.83 250.17,263.83 				"/>
				<polygon class="st8" points="250.18,264.07 250.02,288.8 249.18,417.07 243.05,417.07 242.21,288.8 242.05,264.07 				"/>
				<polygon class="st14" points="250.18,264.07 250.02,289.07 242.21,289.07 242.05,264.07 				"/>
			</g>
			<g>
				<polygon class="st10" points="314.21,417.07 308.09,417.07 297.08,263.83 305.21,263.83 				"/>
				<polygon class="st8" points="314.22,417.07 308.09,417.07 297.62,271.44 297.08,264.07 305.21,264.07 305.65,271.44 				"/>
				<polygon class="st14" points="305.65,271.07 297.62,271.07 297.08,264.07 305.21,264.07 				"/>
			</g>
			<g>
				<polygon class="st10" points="134.13,417.07 128.01,417.07 137.01,263.83 145.14,263.83 				"/>
				<polygon class="st8" points="145.14,264.07 144.6,271.44 134.13,417.07 128.01,417.07 136.57,271.44 137.01,264.07 				"/>
				<polygon class="st14" points="137.01,264.07 145.14,264.07 144.6,271.07 136.57,271.07 				"/>
			</g>
			<g>
				<path class="st2" d="M309.49,267.66H132.73c-1.19,0-2.16-0.97-2.16-2.16v-5.51h181.08v5.51
					C311.65,266.69,310.68,267.66,309.49,267.66z"/>
				<path class="st12" d="M309.49,267.66H132.73c-1.19,0-2.16-0.97-2.16-2.16v-5.51h181.08v5.51
					C311.65,266.69,310.68,267.66,309.49,267.66z"/>
			</g>
			<rect x="130.57" y="259.99" class="st14" width="181.08" height="3.84"/>
			<g>
				<path class="st2" d="M315.45,260.99H126.77c-1.19,0-2.16-0.97-2.16-2.16l0,0c0-1.19,0.97-2.16,2.16-2.16h188.68
					c1.19,0,2.16,0.97,2.16,2.16l0,0C317.61,260.02,316.64,260.99,315.45,260.99z"/>
				<path class="st12" d="M315.45,260.99H126.77c-1.19,0-2.16-0.97-2.16-2.16l0,0c0-1.19,0.97-2.16,2.16-2.16h188.68
					c1.19,0,2.16,0.97,2.16,2.16l0,0C317.61,260.02,316.64,260.99,315.45,260.99z"/>
			</g>
		</g>
		<g>
			<path class="st2" d="M270.81,250l2.32-3.48c0.46-0.69,1.24-1.11,2.08-1.11h2.94c0.25,0,0.49,0.04,0.72,0.11l10.49,3.18
				c0.6,0.18,1.1,0.58,1.42,1.11l1.5,2.53L270.81,250z"/>
			<path class="st14" d="M292.29,252.34l-15.27-1.66l-6.21-0.68l2.32-3.48c0.46-0.69,1.24-1.11,2.08-1.11h2.94
				c0.25,0,0.49,0.04,0.73,0.11l0.23,0.07l10.25,3.11c0.6,0.18,1.11,0.57,1.43,1.11L292.29,252.34z"/>
			<path class="st14" d="M292.29,252.34l-15.27-1.66l2.09-5.09l10.25,3.11c0.6,0.18,1.11,0.57,1.43,1.11L292.29,252.34z"/>
			<path class="st2" d="M299.55,256.33v0.33h-13.31h-19.11l1.2-4.69c0.47-1.76,2.07-2.99,3.89-2.99h14.38c0.48,0,0.95,0.08,1.4,0.25
				l1.8,0.67l7.14,2.66C298.51,253.15,299.55,254.65,299.55,256.33z"/>
			<path class="st14" d="M299.55,256.33v0.33h-13.31l0,0l0.71-5.07c0.19-1.34,1.58-2.16,2.85-1.69l7.14,2.66
				C298.51,253.15,299.55,254.65,299.55,256.33z"/>
			<path class="st10" d="M288.31,253.22l4.23-12.71c0.18-0.55,0.81-0.8,1.33-0.54l0,0c0.39,0.2,0.59,0.65,0.48,1.08l-3.57,13.57
				C290.78,254.61,288.41,255.57,288.31,253.22z"/>
			<polygon class="st14" points="270.81,255.61 268.93,255.61 269.29,253.76 271.17,253.76 			"/>
			<polygon class="st14" points="273.61,255.54 271.73,255.54 272.09,253.69 273.97,253.69 			"/>
		</g>
	</g>
</g>
</svg>
